<?xml version="1.0" encoding="utf-8"?>
<!-- Generator: Adobe Illustrator 23.0.1, SVG Export Plug-In . SVG Version: 6.00 Build 0)  -->
<svg version="1.1" id="Layer_1" xmlns="http://www.w3.org/2000/svg" xmlns:xlink="http://www.w3.org/1999/xlink" x="0px" y="0px"
	 viewBox="0 0 46 26" style="enable-background:new 0 0 46 26;" xml:space="preserve">
<style type="text/css">
	.st0{fill-rule:evenodd;clip-rule:evenodd;fill:#4A4A4A;}
</style>
<title>Path Copy</title>
<desc>Created with Sketch.</desc>
<g id="Page-1">
	<g id="Apple-TV-Copy" transform="translate(-1516.000000, -1307.000000)">
		<path id="Path-Copy" class="st0" d="M1534.5,1308.5c4.3-1.6,8.6-1.9,12.9-0.8c0.1,3.2,1.4,7.5,3.3,12.3c5.7,1.3,9.5,3.3,10.9,4.1
			c0.1,0.1,0.1,0.3-0.1,0.3c-1.6-0.2-5.6-0.7-10.6-1.1c-0.4,5.2-5,9.3-10.5,9.3c-5.8,0-10.4-4.4-10.6-9.9c-4.2,0.2-7.9,0.7-10.5,1.7
			c-8.2,3.2-0.1-1.8,10.3-4.4L1534.5,1308.5z"/>
	</g>
</g>
</svg>
