<?xml version="1.0" encoding="UTF-8"?>
<svg width="603px" height="402px" viewBox="0 0 603 402" version="1.1" xmlns="http://www.w3.org/2000/svg" xmlns:xlink="http://www.w3.org/1999/xlink">
    <!-- Generator: Sketch 52.6 (67491) - http://www.bohemiancoding.com/sketch -->
    <title>Group 18</title>
    <desc>Created with Sketch.</desc>
    <g id="Page-1" stroke="none" stroke-width="1" fill="none" fill-rule="evenodd">
        <g id="Group-18" transform="translate(-19.000000, -113.000000)">
            <path d="M187.167793,186.396911 L542.323099,97.3734772 L459.815072,406.375637 L98.8979545,504.203301 L183.555601,189.946285 C184.027164,188.195799 185.409304,186.837695 187.167793,186.396911 Z" id="Rectangle-Copy-3" fill="#618058" transform="translate(320.610527, 300.788389) rotate(-315.000000) translate(-320.610527, -300.788389) "></path>
            <path d="M252.011505,152.519103 L413.819099,111.979273 L375.573034,253.463475 L210.597151,297.977905 L248.395143,156.08218 C248.863132,154.325325 250.247897,152.960963 252.011505,152.519103 Z" id="Rectangle-Copy-3" fill="#6B975E" transform="translate(312.208125, 204.978589) rotate(-315.000000) translate(-312.208125, -204.978589) "></path>
            <polygon id="Rectangle" fill="#7F5F51" transform="translate(482.315947, 413.815824) scale(-1, 1) rotate(-315.000000) translate(-482.315947, -413.815824) " points="313.342018 441.236481 622.333143 358.744123 651.289877 387.700857 340.993063 468.887525"></polygon>
            <path d="" id="Path-3" stroke="#979797"></path>
            <polygon id="Path-4" fill="#769F69" points="174.626852 199 19.8795284 288 255.793042 423.100796 536 262.373427 449.853991 211.023596 322.777413 284.132711"></polygon>
            <polygon id="Rectangle" fill="#9D6D58" transform="translate(182.728632, 400.793980) rotate(-315.000000) translate(-182.728632, -400.793980) " points="-12.19038 435.992151 348.659967 338.137392 377.647644 367.125068 15.2680366 463.450568"></polygon>
            <g id="plant" transform="translate(57.000000, 243.000000)" fill="#556A4F">
                <g id="Group">
                    <path d="M27.3250043,6.67281323 C21.3865787,0.766634241 9.76581277,0.0817743191 1.54331064,0.0817743191 C0.690995745,0.0817743191 0,0.76936965 0,1.61749027 C0,9.80255253 0.688246809,21.3661323 6.62363404,27.2754786 C9.41033191,29.7451206 13.0529617,31.0392568 16.7813872,30.8843463 C20.6257021,31.0350817 24.3872596,29.7475681 27.3250043,27.2754786 C31.7480426,22.8710389 32.5597021,11.8818949 27.3250043,6.67281323 Z" id="Path"></path>
                    <path d="M66.4281872,6.15682879 C58.2026468,6.15682879 46.5818809,6.84168872 40.6433106,12.7478677 C35.3961702,17.9691868 36.2202723,28.94307 40.6433106,33.3473658 C43.5819234,35.8198872 47.3446383,37.1074008 51.189966,36.9562335 C54.9182468,37.110856 58.5608766,35.8167198 61.3477191,33.3473658 C67.2861447,27.4381634 67.9713532,15.8745837 67.9713532,7.68937743 C67.9697617,6.84255253 67.2793447,6.15682879 66.4281872,6.15682879 Z" id="Path"></path>
                </g>
                <path d="M31.9940724,62 C31.1437943,62 30.45445,61.3141003 30.45445,60.4680712 C30.45445,27.9768767 18.4796893,19.8242064 13.9718158,16.7573329 C13.4281055,16.4119416 12.9132622,16.0236098 12.4321934,15.596215 C11.8414299,14.9877232 11.8584614,14.017899 12.4700092,13.4300875 C13.0666904,12.8566375 14.0125183,12.8566375 14.6091995,13.4300875 C14.9569028,13.7226289 15.3252459,13.9898943 15.7114866,14.2297294 C19.7143316,16.9533658 29.1427327,23.3720426 32.403551,44.4261184 C34.9234973,33.4188358 42.3934155,24.1772854 52.6582384,19.367658 C53.4442873,18.9997194 54.3824654,19.294415 54.8135943,20.0447973 C55.2030104,20.7276811 54.9625481,21.5952522 54.2762348,21.982866 C54.2505431,21.997371 54.2242741,22.0111579 54.1977165,22.0240832 L53.9483054,22.140554 C37.0684611,30.0358683 33.524313,47.3400431 33.524313,60.4682148 C33.5244573,61.31051 32.840742,61.9948299 31.9940724,62 Z" id="Path"></path>
            </g>
            <g id="plant-copy" transform="translate(131.010458, 201.000000)" fill="#556A4F">
                <g id="Group">
                    <path d="M27.3250043,6.67281323 C21.3865787,0.766634241 9.76581277,0.0817743191 1.54331064,0.0817743191 C0.690995745,0.0817743191 0,0.76936965 0,1.61749027 C0,9.80255253 0.688246809,21.3661323 6.62363404,27.2754786 C9.41033191,29.7451206 13.0529617,31.0392568 16.7813872,30.8843463 C20.6257021,31.0350817 24.3872596,29.7475681 27.3250043,27.2754786 C31.7480426,22.8710389 32.5597021,11.8818949 27.3250043,6.67281323 Z" id="Path"></path>
                    <path d="M66.4281872,6.15682879 C58.2026468,6.15682879 46.5818809,6.84168872 40.6433106,12.7478677 C35.3961702,17.9691868 36.2202723,28.94307 40.6433106,33.3473658 C43.5819234,35.8198872 47.3446383,37.1074008 51.189966,36.9562335 C54.9182468,37.110856 58.5608766,35.8167198 61.3477191,33.3473658 C67.2861447,27.4381634 67.9713532,15.8745837 67.9713532,7.68937743 C67.9697617,6.84255253 67.2793447,6.15682879 66.4281872,6.15682879 Z" id="Path"></path>
                </g>
                <path d="M31.9940724,62 C31.1437943,62 30.45445,61.3141003 30.45445,60.4680712 C30.45445,27.9768767 18.4796893,19.8242064 13.9718158,16.7573329 C13.4281055,16.4119416 12.9132622,16.0236098 12.4321934,15.596215 C11.8414299,14.9877232 11.8584614,14.017899 12.4700092,13.4300875 C13.0666904,12.8566375 14.0125183,12.8566375 14.6091995,13.4300875 C14.9569028,13.7226289 15.3252459,13.9898943 15.7114866,14.2297294 C19.7143316,16.9533658 29.1427327,23.3720426 32.403551,44.4261184 C34.9234973,33.4188358 42.3934155,24.1772854 52.6582384,19.367658 C53.4442873,18.9997194 54.3824654,19.294415 54.8135943,20.0447973 C55.2030104,20.7276811 54.9625481,21.5952522 54.2762348,21.982866 C54.2505431,21.997371 54.2242741,22.0111579 54.1977165,22.0240832 L53.9483054,22.140554 C37.0684611,30.0358683 33.524313,47.3400431 33.524313,60.4682148 C33.5244573,61.31051 32.840742,61.9948299 31.9940724,62 Z" id="Path"></path>
            </g>
            <g id="plant-copy-2" transform="translate(131.539105, 288.000000)" fill="#556A4F">
                <g id="Group">
                    <path d="M27.3250043,6.67281323 C21.3865787,0.766634241 9.76581277,0.0817743191 1.54331064,0.0817743191 C0.690995745,0.0817743191 0,0.76936965 0,1.61749027 C0,9.80255253 0.688246809,21.3661323 6.62363404,27.2754786 C9.41033191,29.7451206 13.0529617,31.0392568 16.7813872,30.8843463 C20.6257021,31.0350817 24.3872596,29.7475681 27.3250043,27.2754786 C31.7480426,22.8710389 32.5597021,11.8818949 27.3250043,6.67281323 Z" id="Path"></path>
                    <path d="M66.4281872,6.15682879 C58.2026468,6.15682879 46.5818809,6.84168872 40.6433106,12.7478677 C35.3961702,17.9691868 36.2202723,28.94307 40.6433106,33.3473658 C43.5819234,35.8198872 47.3446383,37.1074008 51.189966,36.9562335 C54.9182468,37.110856 58.5608766,35.8167198 61.3477191,33.3473658 C67.2861447,27.4381634 67.9713532,15.8745837 67.9713532,7.68937743 C67.9697617,6.84255253 67.2793447,6.15682879 66.4281872,6.15682879 Z" id="Path"></path>
                </g>
                <path d="M31.9940724,62 C31.1437943,62 30.45445,61.3141003 30.45445,60.4680712 C30.45445,27.9768767 18.4796893,19.8242064 13.9718158,16.7573329 C13.4281055,16.4119416 12.9132622,16.0236098 12.4321934,15.596215 C11.8414299,14.9877232 11.8584614,14.017899 12.4700092,13.4300875 C13.0666904,12.8566375 14.0125183,12.8566375 14.6091995,13.4300875 C14.9569028,13.7226289 15.3252459,13.9898943 15.7114866,14.2297294 C19.7143316,16.9533658 29.1427327,23.3720426 32.403551,44.4261184 C34.9234973,33.4188358 42.3934155,24.1772854 52.6582384,19.367658 C53.4442873,18.9997194 54.3824654,19.294415 54.8135943,20.0447973 C55.2030104,20.7276811 54.9625481,21.5952522 54.2762348,21.982866 C54.2505431,21.997371 54.2242741,22.0111579 54.1977165,22.0240832 L53.9483054,22.140554 C37.0684611,30.0358683 33.524313,47.3400431 33.524313,60.4682148 C33.5244573,61.31051 32.840742,61.9948299 31.9940724,62 Z" id="Path"></path>
            </g>
            <g id="plant-copy-3" transform="translate(200.039105, 246.539105)" fill="#556A4F">
                <g id="Group">
                    <path d="M27.3250043,6.67281323 C21.3865787,0.766634241 9.76581277,0.0817743191 1.54331064,0.0817743191 C0.690995745,0.0817743191 0,0.76936965 0,1.61749027 C0,9.80255253 0.688246809,21.3661323 6.62363404,27.2754786 C9.41033191,29.7451206 13.0529617,31.0392568 16.7813872,30.8843463 C20.6257021,31.0350817 24.3872596,29.7475681 27.3250043,27.2754786 C31.7480426,22.8710389 32.5597021,11.8818949 27.3250043,6.67281323 Z" id="Path"></path>
                    <path d="M66.4281872,6.15682879 C58.2026468,6.15682879 46.5818809,6.84168872 40.6433106,12.7478677 C35.3961702,17.9691868 36.2202723,28.94307 40.6433106,33.3473658 C43.5819234,35.8198872 47.3446383,37.1074008 51.189966,36.9562335 C54.9182468,37.110856 58.5608766,35.8167198 61.3477191,33.3473658 C67.2861447,27.4381634 67.9713532,15.8745837 67.9713532,7.68937743 C67.9697617,6.84255253 67.2793447,6.15682879 66.4281872,6.15682879 Z" id="Path"></path>
                </g>
                <path d="M31.9940724,62 C31.1437943,62 30.45445,61.3141003 30.45445,60.4680712 C30.45445,27.9768767 18.4796893,19.8242064 13.9718158,16.7573329 C13.4281055,16.4119416 12.9132622,16.0236098 12.4321934,15.596215 C11.8414299,14.9877232 11.8584614,14.017899 12.4700092,13.4300875 C13.0666904,12.8566375 14.0125183,12.8566375 14.6091995,13.4300875 C14.9569028,13.7226289 15.3252459,13.9898943 15.7114866,14.2297294 C19.7143316,16.9533658 29.1427327,23.3720426 32.403551,44.4261184 C34.9234973,33.4188358 42.3934155,24.1772854 52.6582384,19.367658 C53.4442873,18.9997194 54.3824654,19.294415 54.8135943,20.0447973 C55.2030104,20.7276811 54.9625481,21.5952522 54.2762348,21.982866 C54.2505431,21.997371 54.2242741,22.0111579 54.1977165,22.0240832 L53.9483054,22.140554 C37.0684611,30.0358683 33.524313,47.3400431 33.524313,60.4682148 C33.5244573,61.31051 32.840742,61.9948299 31.9940724,62 Z" id="Path"></path>
            </g>
            <g id="plant-copy-4" transform="translate(215.000000, 329.539105)" fill="#556A4F">
                <g id="Group">
                    <path d="M27.3250043,6.67281323 C21.3865787,0.766634241 9.76581277,0.0817743191 1.54331064,0.0817743191 C0.690995745,0.0817743191 0,0.76936965 0,1.61749027 C0,9.80255253 0.688246809,21.3661323 6.62363404,27.2754786 C9.41033191,29.7451206 13.0529617,31.0392568 16.7813872,30.8843463 C20.6257021,31.0350817 24.3872596,29.7475681 27.3250043,27.2754786 C31.7480426,22.8710389 32.5597021,11.8818949 27.3250043,6.67281323 Z" id="Path"></path>
                    <path d="M66.4281872,6.15682879 C58.2026468,6.15682879 46.5818809,6.84168872 40.6433106,12.7478677 C35.3961702,17.9691868 36.2202723,28.94307 40.6433106,33.3473658 C43.5819234,35.8198872 47.3446383,37.1074008 51.189966,36.9562335 C54.9182468,37.110856 58.5608766,35.8167198 61.3477191,33.3473658 C67.2861447,27.4381634 67.9713532,15.8745837 67.9713532,7.68937743 C67.9697617,6.84255253 67.2793447,6.15682879 66.4281872,6.15682879 Z" id="Path"></path>
                </g>
                <path d="M31.9940724,62 C31.1437943,62 30.45445,61.3141003 30.45445,60.4680712 C30.45445,27.9768767 18.4796893,19.8242064 13.9718158,16.7573329 C13.4281055,16.4119416 12.9132622,16.0236098 12.4321934,15.596215 C11.8414299,14.9877232 11.8584614,14.017899 12.4700092,13.4300875 C13.0666904,12.8566375 14.0125183,12.8566375 14.6091995,13.4300875 C14.9569028,13.7226289 15.3252459,13.9898943 15.7114866,14.2297294 C19.7143316,16.9533658 29.1427327,23.3720426 32.403551,44.4261184 C34.9234973,33.4188358 42.3934155,24.1772854 52.6582384,19.367658 C53.4442873,18.9997194 54.3824654,19.294415 54.8135943,20.0447973 C55.2030104,20.7276811 54.9625481,21.5952522 54.2762348,21.982866 C54.2505431,21.997371 54.2242741,22.0111579 54.1977165,22.0240832 L53.9483054,22.140554 C37.0684611,30.0358683 33.524313,47.3400431 33.524313,60.4682148 C33.5244573,61.31051 32.840742,61.9948299 31.9940724,62 Z" id="Path"></path>
            </g>
            <g id="plant-copy-5" transform="translate(288.000000, 295.918226)" fill="#556A4F">
                <g id="Group">
                    <path d="M27.3250043,6.67281323 C21.3865787,0.766634241 9.76581277,0.0817743191 1.54331064,0.0817743191 C0.690995745,0.0817743191 0,0.76936965 0,1.61749027 C0,9.80255253 0.688246809,21.3661323 6.62363404,27.2754786 C9.41033191,29.7451206 13.0529617,31.0392568 16.7813872,30.8843463 C20.6257021,31.0350817 24.3872596,29.7475681 27.3250043,27.2754786 C31.7480426,22.8710389 32.5597021,11.8818949 27.3250043,6.67281323 Z" id="Path"></path>
                    <path d="M66.4281872,6.15682879 C58.2026468,6.15682879 46.5818809,6.84168872 40.6433106,12.7478677 C35.3961702,17.9691868 36.2202723,28.94307 40.6433106,33.3473658 C43.5819234,35.8198872 47.3446383,37.1074008 51.189966,36.9562335 C54.9182468,37.110856 58.5608766,35.8167198 61.3477191,33.3473658 C67.2861447,27.4381634 67.9713532,15.8745837 67.9713532,7.68937743 C67.9697617,6.84255253 67.2793447,6.15682879 66.4281872,6.15682879 Z" id="Path"></path>
                </g>
                <path d="M31.9940724,62 C31.1437943,62 30.45445,61.3141003 30.45445,60.4680712 C30.45445,27.9768767 18.4796893,19.8242064 13.9718158,16.7573329 C13.4281055,16.4119416 12.9132622,16.0236098 12.4321934,15.596215 C11.8414299,14.9877232 11.8584614,14.017899 12.4700092,13.4300875 C13.0666904,12.8566375 14.0125183,12.8566375 14.6091995,13.4300875 C14.9569028,13.7226289 15.3252459,13.9898943 15.7114866,14.2297294 C19.7143316,16.9533658 29.1427327,23.3720426 32.403551,44.4261184 C34.9234973,33.4188358 42.3934155,24.1772854 52.6582384,19.367658 C53.4442873,18.9997194 54.3824654,19.294415 54.8135943,20.0447973 C55.2030104,20.7276811 54.9625481,21.5952522 54.2762348,21.982866 C54.2505431,21.997371 54.2242741,22.0111579 54.1977165,22.0240832 L53.9483054,22.140554 C37.0684611,30.0358683 33.524313,47.3400431 33.524313,60.4682148 C33.5244573,61.31051 32.840742,61.9948299 31.9940724,62 Z" id="Path"></path>
            </g>
            <g id="plant-copy-6" transform="translate(358.000000, 249.000000)" fill="#556A4F">
                <g id="Group">
                    <path d="M27.3250043,6.67281323 C21.3865787,0.766634241 9.76581277,0.0817743191 1.54331064,0.0817743191 C0.690995745,0.0817743191 0,0.76936965 0,1.61749027 C0,9.80255253 0.688246809,21.3661323 6.62363404,27.2754786 C9.41033191,29.7451206 13.0529617,31.0392568 16.7813872,30.8843463 C20.6257021,31.0350817 24.3872596,29.7475681 27.3250043,27.2754786 C31.7480426,22.8710389 32.5597021,11.8818949 27.3250043,6.67281323 Z" id="Path"></path>
                    <path d="M66.4281872,6.15682879 C58.2026468,6.15682879 46.5818809,6.84168872 40.6433106,12.7478677 C35.3961702,17.9691868 36.2202723,28.94307 40.6433106,33.3473658 C43.5819234,35.8198872 47.3446383,37.1074008 51.189966,36.9562335 C54.9182468,37.110856 58.5608766,35.8167198 61.3477191,33.3473658 C67.2861447,27.4381634 67.9713532,15.8745837 67.9713532,7.68937743 C67.9697617,6.84255253 67.2793447,6.15682879 66.4281872,6.15682879 Z" id="Path"></path>
                </g>
                <path d="M31.9940724,62 C31.1437943,62 30.45445,61.3141003 30.45445,60.4680712 C30.45445,27.9768767 18.4796893,19.8242064 13.9718158,16.7573329 C13.4281055,16.4119416 12.9132622,16.0236098 12.4321934,15.596215 C11.8414299,14.9877232 11.8584614,14.017899 12.4700092,13.4300875 C13.0666904,12.8566375 14.0125183,12.8566375 14.6091995,13.4300875 C14.9569028,13.7226289 15.3252459,13.9898943 15.7114866,14.2297294 C19.7143316,16.9533658 29.1427327,23.3720426 32.403551,44.4261184 C34.9234973,33.4188358 42.3934155,24.1772854 52.6582384,19.367658 C53.4442873,18.9997194 54.3824654,19.294415 54.8135943,20.0447973 C55.2030104,20.7276811 54.9625481,21.5952522 54.2762348,21.982866 C54.2505431,21.997371 54.2242741,22.0111579 54.1977165,22.0240832 L53.9483054,22.140554 C37.0684611,30.0358683 33.524313,47.3400431 33.524313,60.4682148 C33.5244573,61.31051 32.840742,61.9948299 31.9940724,62 Z" id="Path"></path>
            </g>
            <g id="plant-copy-8" transform="translate(310.000000, 387.000000)" fill="#DAD7AB">
                <g id="Group">
                    <path d="M27.3250043,6.67281323 C21.3865787,0.766634241 9.76581277,0.0817743191 1.54331064,0.0817743191 C0.690995745,0.0817743191 0,0.76936965 0,1.61749027 C0,9.80255253 0.688246809,21.3661323 6.62363404,27.2754786 C9.41033191,29.7451206 13.0529617,31.0392568 16.7813872,30.8843463 C20.6257021,31.0350817 24.3872596,29.7475681 27.3250043,27.2754786 C31.7480426,22.8710389 32.5597021,11.8818949 27.3250043,6.67281323 Z" id="Path"></path>
                    <path d="M66.4281872,6.15682879 C58.2026468,6.15682879 46.5818809,6.84168872 40.6433106,12.7478677 C35.3961702,17.9691868 36.2202723,28.94307 40.6433106,33.3473658 C43.5819234,35.8198872 47.3446383,37.1074008 51.189966,36.9562335 C54.9182468,37.110856 58.5608766,35.8167198 61.3477191,33.3473658 C67.2861447,27.4381634 67.9713532,15.8745837 67.9713532,7.68937743 C67.9697617,6.84255253 67.2793447,6.15682879 66.4281872,6.15682879 Z" id="Path"></path>
                </g>
                <path d="M31.9940724,62 C31.1437943,62 30.45445,61.3141003 30.45445,60.4680712 C30.45445,27.9768767 18.4796893,19.8242064 13.9718158,16.7573329 C13.4281055,16.4119416 12.9132622,16.0236098 12.4321934,15.596215 C11.8414299,14.9877232 11.8584614,14.017899 12.4700092,13.4300875 C13.0666904,12.8566375 14.0125183,12.8566375 14.6091995,13.4300875 C14.9569028,13.7226289 15.3252459,13.9898943 15.7114866,14.2297294 C19.7143316,16.9533658 29.1427327,23.3720426 32.403551,44.4261184 C34.9234973,33.4188358 42.3934155,24.1772854 52.6582384,19.367658 C53.4442873,18.9997194 54.3824654,19.294415 54.8135943,20.0447973 C55.2030104,20.7276811 54.9625481,21.5952522 54.2762348,21.982866 C54.2505431,21.997371 54.2242741,22.0111579 54.1977165,22.0240832 L53.9483054,22.140554 C37.0684611,30.0358683 33.524313,47.3400431 33.524313,60.4682148 C33.5244573,61.31051 32.840742,61.9948299 31.9940724,62 Z" id="Path"></path>
            </g>
            <g id="plant-copy-9" transform="translate(380.000000, 348.000000)" fill="#DAD7AB">
                <g id="Group">
                    <path d="M27.3250043,6.67281323 C21.3865787,0.766634241 9.76581277,0.0817743191 1.54331064,0.0817743191 C0.690995745,0.0817743191 0,0.76936965 0,1.61749027 C0,9.80255253 0.688246809,21.3661323 6.62363404,27.2754786 C9.41033191,29.7451206 13.0529617,31.0392568 16.7813872,30.8843463 C20.6257021,31.0350817 24.3872596,29.7475681 27.3250043,27.2754786 C31.7480426,22.8710389 32.5597021,11.8818949 27.3250043,6.67281323 Z" id="Path"></path>
                    <path d="M66.4281872,6.15682879 C58.2026468,6.15682879 46.5818809,6.84168872 40.6433106,12.7478677 C35.3961702,17.9691868 36.2202723,28.94307 40.6433106,33.3473658 C43.5819234,35.8198872 47.3446383,37.1074008 51.189966,36.9562335 C54.9182468,37.110856 58.5608766,35.8167198 61.3477191,33.3473658 C67.2861447,27.4381634 67.9713532,15.8745837 67.9713532,7.68937743 C67.9697617,6.84255253 67.2793447,6.15682879 66.4281872,6.15682879 Z" id="Path"></path>
                </g>
                <path d="M31.9940724,62 C31.1437943,62 30.45445,61.3141003 30.45445,60.4680712 C30.45445,27.9768767 18.4796893,19.8242064 13.9718158,16.7573329 C13.4281055,16.4119416 12.9132622,16.0236098 12.4321934,15.596215 C11.8414299,14.9877232 11.8584614,14.017899 12.4700092,13.4300875 C13.0666904,12.8566375 14.0125183,12.8566375 14.6091995,13.4300875 C14.9569028,13.7226289 15.3252459,13.9898943 15.7114866,14.2297294 C19.7143316,16.9533658 29.1427327,23.3720426 32.403551,44.4261184 C34.9234973,33.4188358 42.3934155,24.1772854 52.6582384,19.367658 C53.4442873,18.9997194 54.3824654,19.294415 54.8135943,20.0447973 C55.2030104,20.7276811 54.9625481,21.5952522 54.2762348,21.982866 C54.2505431,21.997371 54.2242741,22.0111579 54.1977165,22.0240832 L53.9483054,22.140554 C37.0684611,30.0358683 33.524313,47.3400431 33.524313,60.4682148 C33.5244573,61.31051 32.840742,61.9948299 31.9940724,62 Z" id="Path"></path>
            </g>
            <g id="plant-copy-10" transform="translate(450.000000, 307.000000)" fill="#DAD7AB">
                <g id="Group">
                    <path d="M27.3250043,6.67281323 C21.3865787,0.766634241 9.76581277,0.0817743191 1.54331064,0.0817743191 C0.690995745,0.0817743191 0,0.76936965 0,1.61749027 C0,9.80255253 0.688246809,21.3661323 6.62363404,27.2754786 C9.41033191,29.7451206 13.0529617,31.0392568 16.7813872,30.8843463 C20.6257021,31.0350817 24.3872596,29.7475681 27.3250043,27.2754786 C31.7480426,22.8710389 32.5597021,11.8818949 27.3250043,6.67281323 Z" id="Path"></path>
                    <path d="M66.4281872,6.15682879 C58.2026468,6.15682879 46.5818809,6.84168872 40.6433106,12.7478677 C35.3961702,17.9691868 36.2202723,28.94307 40.6433106,33.3473658 C43.5819234,35.8198872 47.3446383,37.1074008 51.189966,36.9562335 C54.9182468,37.110856 58.5608766,35.8167198 61.3477191,33.3473658 C67.2861447,27.4381634 67.9713532,15.8745837 67.9713532,7.68937743 C67.9697617,6.84255253 67.2793447,6.15682879 66.4281872,6.15682879 Z" id="Path"></path>
                </g>
                <path d="M31.9940724,62 C31.1437943,62 30.45445,61.3141003 30.45445,60.4680712 C30.45445,27.9768767 18.4796893,19.8242064 13.9718158,16.7573329 C13.4281055,16.4119416 12.9132622,16.0236098 12.4321934,15.596215 C11.8414299,14.9877232 11.8584614,14.017899 12.4700092,13.4300875 C13.0666904,12.8566375 14.0125183,12.8566375 14.6091995,13.4300875 C14.9569028,13.7226289 15.3252459,13.9898943 15.7114866,14.2297294 C19.7143316,16.9533658 29.1427327,23.3720426 32.403551,44.4261184 C34.9234973,33.4188358 42.3934155,24.1772854 52.6582384,19.367658 C53.4442873,18.9997194 54.3824654,19.294415 54.8135943,20.0447973 C55.2030104,20.7276811 54.9625481,21.5952522 54.2762348,21.982866 C54.2505431,21.997371 54.2242741,22.0111579 54.1977165,22.0240832 L53.9483054,22.140554 C37.0684611,30.0358683 33.524313,47.3400431 33.524313,60.4682148 C33.5244573,61.31051 32.840742,61.9948299 31.9940724,62 Z" id="Path"></path>
            </g>
            <g id="plant-copy-11" transform="translate(512.000000, 265.000000)" fill="#DAD7AB">
                <g id="Group">
                    <path d="M27.3250043,6.67281323 C21.3865787,0.766634241 9.76581277,0.0817743191 1.54331064,0.0817743191 C0.690995745,0.0817743191 0,0.76936965 0,1.61749027 C0,9.80255253 0.688246809,21.3661323 6.62363404,27.2754786 C9.41033191,29.7451206 13.0529617,31.0392568 16.7813872,30.8843463 C20.6257021,31.0350817 24.3872596,29.7475681 27.3250043,27.2754786 C31.7480426,22.8710389 32.5597021,11.8818949 27.3250043,6.67281323 Z" id="Path"></path>
                    <path d="M66.4281872,6.15682879 C58.2026468,6.15682879 46.5818809,6.84168872 40.6433106,12.7478677 C35.3961702,17.9691868 36.2202723,28.94307 40.6433106,33.3473658 C43.5819234,35.8198872 47.3446383,37.1074008 51.189966,36.9562335 C54.9182468,37.110856 58.5608766,35.8167198 61.3477191,33.3473658 C67.2861447,27.4381634 67.9713532,15.8745837 67.9713532,7.68937743 C67.9697617,6.84255253 67.2793447,6.15682879 66.4281872,6.15682879 Z" id="Path"></path>
                </g>
                <path d="M31.9940724,62 C31.1437943,62 30.45445,61.3141003 30.45445,60.4680712 C30.45445,27.9768767 18.4796893,19.8242064 13.9718158,16.7573329 C13.4281055,16.4119416 12.9132622,16.0236098 12.4321934,15.596215 C11.8414299,14.9877232 11.8584614,14.017899 12.4700092,13.4300875 C13.0666904,12.8566375 14.0125183,12.8566375 14.6091995,13.4300875 C14.9569028,13.7226289 15.3252459,13.9898943 15.7114866,14.2297294 C19.7143316,16.9533658 29.1427327,23.3720426 32.403551,44.4261184 C34.9234973,33.4188358 42.3934155,24.1772854 52.6582384,19.367658 C53.4442873,18.9997194 54.3824654,19.294415 54.8135943,20.0447973 C55.2030104,20.7276811 54.9625481,21.5952522 54.2762348,21.982866 C54.2505431,21.997371 54.2242741,22.0111579 54.1977165,22.0240832 L53.9483054,22.140554 C37.0684611,30.0358683 33.524313,47.3400431 33.524313,60.4682148 C33.5244573,61.31051 32.840742,61.9948299 31.9940724,62 Z" id="Path"></path>
            </g>
            <g id="plant-copy-7" transform="translate(429.000000, 211.000000)" fill="#556A4F">
                <g id="Group">
                    <path d="M27.3250043,6.67281323 C21.3865787,0.766634241 9.76581277,0.0817743191 1.54331064,0.0817743191 C0.690995745,0.0817743191 0,0.76936965 0,1.61749027 C0,9.80255253 0.688246809,21.3661323 6.62363404,27.2754786 C9.41033191,29.7451206 13.0529617,31.0392568 16.7813872,30.8843463 C20.6257021,31.0350817 24.3872596,29.7475681 27.3250043,27.2754786 C31.7480426,22.8710389 32.5597021,11.8818949 27.3250043,6.67281323 Z" id="Path"></path>
                    <path d="M66.4281872,6.15682879 C58.2026468,6.15682879 46.5818809,6.84168872 40.6433106,12.7478677 C35.3961702,17.9691868 36.2202723,28.94307 40.6433106,33.3473658 C43.5819234,35.8198872 47.3446383,37.1074008 51.189966,36.9562335 C54.9182468,37.110856 58.5608766,35.8167198 61.3477191,33.3473658 C67.2861447,27.4381634 67.9713532,15.8745837 67.9713532,7.68937743 C67.9697617,6.84255253 67.2793447,6.15682879 66.4281872,6.15682879 Z" id="Path"></path>
                </g>
                <path d="M31.9940724,62 C31.1437943,62 30.45445,61.3141003 30.45445,60.4680712 C30.45445,27.9768767 18.4796893,19.8242064 13.9718158,16.7573329 C13.4281055,16.4119416 12.9132622,16.0236098 12.4321934,15.596215 C11.8414299,14.9877232 11.8584614,14.017899 12.4700092,13.4300875 C13.0666904,12.8566375 14.0125183,12.8566375 14.6091995,13.4300875 C14.9569028,13.7226289 15.3252459,13.9898943 15.7114866,14.2297294 C19.7143316,16.9533658 29.1427327,23.3720426 32.403551,44.4261184 C34.9234973,33.4188358 42.3934155,24.1772854 52.6582384,19.367658 C53.4442873,18.9997194 54.3824654,19.294415 54.8135943,20.0447973 C55.2030104,20.7276811 54.9625481,21.5952522 54.2762348,21.982866 C54.2505431,21.997371 54.2242741,22.0111579 54.1977165,22.0240832 L53.9483054,22.140554 C37.0684611,30.0358683 33.524313,47.3400431 33.524313,60.4682148 C33.5244573,61.31051 32.840742,61.9948299 31.9940724,62 Z" id="Path"></path>
            </g>
            <path d="M306.260864,225.247381 C308.395179,229.486972 310.271223,235.033257 311.403551,242.344344 C312.555916,237.310744 314.743422,232.646394 317.759981,228.606265 C315.11357,223.398691 315.261382,215.026458 319.643311,210.666093 C325.581881,204.759914 337.202647,204.075054 345.428187,204.075054 C346.279345,204.075054 346.969762,204.760778 346.971353,205.607603 C346.971353,213.792809 346.286145,225.356389 340.347719,231.265591 C337.560877,233.734946 333.918247,235.029082 330.189966,234.874459 C326.354073,235.025256 322.600388,233.744422 319.664955,231.283769 C314.014586,239.604533 312.524313,249.873467 312.524313,258.38644 C312.524457,259.228736 311.840742,259.913056 310.994072,259.918226 C310.143794,259.918226 309.45445,259.232326 309.45445,258.386297 C309.45445,243.334916 306.884716,233.506482 303.677951,226.987072 C301.272898,228.27437 298.548583,228.911074 295.781387,228.802572 C292.052962,228.957482 288.410332,227.663346 285.623634,225.193704 C279.688247,219.284358 279,207.720778 279,199.535716 C279,198.687595 279.690996,198 280.543311,198 C288.765813,198 300.386579,198.68486 306.325004,204.591039 C311.559702,209.800121 310.748043,220.789265 306.325004,225.193704 C306.303668,225.211659 306.282287,225.229551 306.260864,225.247381 Z" id="Combined-Shape" fill="#BBBAA9"></path>
            <path d="M234.260864,177.247381 C236.395179,181.486972 238.271223,187.033257 239.403551,194.344344 C240.555916,189.310744 242.743422,184.646394 245.759981,180.606265 C243.11357,175.398691 243.261382,167.026458 247.643311,162.666093 C253.581881,156.759914 265.202647,156.075054 273.428187,156.075054 C274.279345,156.075054 274.969762,156.760778 274.971353,157.607603 C274.971353,165.792809 274.286145,177.356389 268.347719,183.265591 C265.560877,185.734946 261.918247,187.029082 258.189966,186.874459 C254.354073,187.025256 250.600388,185.744422 247.664955,183.283769 C242.014586,191.604533 240.524313,201.873467 240.524313,210.38644 C240.524457,211.228736 239.840742,211.913056 238.994072,211.918226 C238.143794,211.918226 237.45445,211.232326 237.45445,210.386297 C237.45445,195.334916 234.884716,185.506482 231.677951,178.987072 C229.272898,180.27437 226.548583,180.911074 223.781387,180.802572 C220.052962,180.957482 216.410332,179.663346 213.623634,177.193704 C207.688247,171.284358 207,159.720778 207,151.535716 C207,150.687595 207.690996,150 208.543311,150 C216.765813,150 228.386579,150.68486 234.325004,156.591039 C239.559702,161.800121 238.748043,172.789265 234.325004,177.193704 C234.303668,177.211659 234.282287,177.229551 234.260864,177.247381 Z" id="Combined-Shape-Copy" fill="#BBBAA9"></path>
            <path d="M298.260864,140.247381 C300.395179,144.486972 302.271223,150.033257 303.403551,157.344344 C304.555916,152.310744 306.743422,147.646394 309.759981,143.606265 C307.11357,138.398691 307.261382,130.026458 311.643311,125.666093 C317.581881,119.759914 329.202647,119.075054 337.428187,119.075054 C338.279345,119.075054 338.969762,119.760778 338.971353,120.607603 C338.971353,128.792809 338.286145,140.356389 332.347719,146.265591 C329.560877,148.734946 325.918247,150.029082 322.189966,149.874459 C318.354073,150.025256 314.600388,148.744422 311.664955,146.283769 C306.014586,154.604533 304.524313,164.873467 304.524313,173.38644 C304.524457,174.228736 303.840742,174.913056 302.994072,174.918226 C302.143794,174.918226 301.45445,174.232326 301.45445,173.386297 C301.45445,158.334916 298.884716,148.506482 295.677951,141.987072 C293.272898,143.27437 290.548583,143.911074 287.781387,143.802572 C284.052962,143.957482 280.410332,142.663346 277.623634,140.193704 C271.688247,134.284358 271,122.720778 271,114.535716 C271,113.687595 271.690996,113 272.543311,113 C280.765813,113 292.386579,113.68486 298.325004,119.591039 C303.559702,124.800121 302.748043,135.789265 298.325004,140.193704 C298.303668,140.211659 298.282287,140.229551 298.260864,140.247381 Z" id="Combined-Shape-Copy-2" fill="#BBBAA9"></path>
            <path d="M375.260864,184.329155 C377.395179,188.568746 379.271223,194.115031 380.403551,201.426118 C381.555916,196.392518 383.743422,191.728169 386.759981,187.68804 C384.11357,182.480466 384.261382,174.108233 388.643311,169.747868 C394.581881,163.841689 406.202647,163.156829 414.428187,163.156829 C415.279345,163.156829 415.969762,163.842553 415.971353,164.689377 C415.971353,172.874584 415.286145,184.438163 409.347719,190.347366 C406.560877,192.81672 402.918247,194.110856 399.189966,193.956233 C395.354073,194.10703 391.600388,192.826196 388.664955,190.365543 C383.014586,198.686308 381.524313,208.955242 381.524313,217.468215 C381.524457,218.31051 380.840742,218.99483 379.994072,219 C379.143794,219 378.45445,218.3141 378.45445,217.468071 C378.45445,202.41669 375.884716,192.588256 372.677951,186.068846 C370.272898,187.356144 367.548583,187.992848 364.781387,187.884346 C361.052962,188.039257 357.410332,186.745121 354.623634,184.275479 C348.688247,178.366132 348,166.802553 348,158.61749 C348,157.76937 348.690996,157.081774 349.543311,157.081774 C357.765813,157.081774 369.386579,157.766634 375.325004,163.672813 C380.559702,168.881895 379.748043,179.871039 375.325004,184.275479 C375.303668,184.293433 375.282287,184.311326 375.260864,184.329155 Z" id="Combined-Shape-Copy-3" fill="#BBBAA9"></path>
        </g>
    </g>
</svg>