<?xml version="1.0" encoding="UTF-8"?>
<svg width="706px" height="458px" viewBox="0 0 706 458" version="1.1" xmlns="http://www.w3.org/2000/svg" xmlns:xlink="http://www.w3.org/1999/xlink">
    <!-- Generator: Sketch 52.6 (67491) - http://www.bohemiancoding.com/sketch -->
    <title>Group 15</title>
    <desc>Created with Sketch.</desc>
    <g id="Page-1" stroke="none" stroke-width="1" fill="none" fill-rule="evenodd">
        <g id="Group-15">
            <path d="M336.797734,1.11158893 L705.243262,221.569612 L380.435811,409.526284 L0.226069777,191.363854 L330.864926,1.06131446 C332.70557,0.00191344475 334.975308,0.0211471485 336.797734,1.11158893 Z" id="Rectangle-Copy-3" fill="#618058"></path>
            <path d="M336.314899,0.844825929 L503.659923,101.182371 L355.073384,186.93116 L180.738428,86.7245918 L330.382447,0.788967407 C332.224009,-0.268581216 334.493577,-0.247211524 336.314899,0.844825929 Z" id="Rectangle-Copy-3" fill="#6B975E"></path>
            <polygon id="Rectangle" fill="#7F5F51" points="705.243262 221.50224 705.243262 267.242542 380.432807 457.402768 380.435811 409.422045"></polygon>
            <path d="" id="Path-3" stroke="#979797"></path>
            <polygon id="Path-4" fill="#769F69" points="181.296988 87 0.239210858 191.368896 254 339 581.010433 151.896809 503.995474 101.11699 355.000649 186.954924"></polygon>
            <polygon id="Rectangle" fill="#9D6D58" points="0.239210858 191.368896 380.432807 409.410309 380.432807 457.402768 0.239210858 236.886218"></polygon>
            <g id="plant" transform="translate(102.000000, 121.000000)" fill="#556A4F">
                <g id="Group">
                    <path d="M27.3250043,6.67281323 C21.3865787,0.766634241 9.76581277,0.0817743191 1.54331064,0.0817743191 C0.690995745,0.0817743191 0,0.76936965 0,1.61749027 C0,9.80255253 0.688246809,21.3661323 6.62363404,27.2754786 C9.41033191,29.7451206 13.0529617,31.0392568 16.7813872,30.8843463 C20.6257021,31.0350817 24.3872596,29.7475681 27.3250043,27.2754786 C31.7480426,22.8710389 32.5597021,11.8818949 27.3250043,6.67281323 Z" id="Path"></path>
                    <path d="M66.4281872,6.15682879 C58.2026468,6.15682879 46.5818809,6.84168872 40.6433106,12.7478677 C35.3961702,17.9691868 36.2202723,28.94307 40.6433106,33.3473658 C43.5819234,35.8198872 47.3446383,37.1074008 51.189966,36.9562335 C54.9182468,37.110856 58.5608766,35.8167198 61.3477191,33.3473658 C67.2861447,27.4381634 67.9713532,15.8745837 67.9713532,7.68937743 C67.9697617,6.84255253 67.2793447,6.15682879 66.4281872,6.15682879 Z" id="Path"></path>
                </g>
                <path d="M31.9940724,62 C31.1437943,62 30.45445,61.3141003 30.45445,60.4680712 C30.45445,27.9768767 18.4796893,19.8242064 13.9718158,16.7573329 C13.4281055,16.4119416 12.9132622,16.0236098 12.4321934,15.596215 C11.8414299,14.9877232 11.8584614,14.017899 12.4700092,13.4300875 C13.0666904,12.8566375 14.0125183,12.8566375 14.6091995,13.4300875 C14.9569028,13.7226289 15.3252459,13.9898943 15.7114866,14.2297294 C19.7143316,16.9533658 29.1427327,23.3720426 32.403551,44.4261184 C34.9234973,33.4188358 42.3934155,24.1772854 52.6582384,19.367658 C53.4442873,18.9997194 54.3824654,19.294415 54.8135943,20.0447973 C55.2030104,20.7276811 54.9625481,21.5952522 54.2762348,21.982866 C54.2505431,21.997371 54.2242741,22.0111579 54.1977165,22.0240832 L53.9483054,22.140554 C37.0684611,30.0358683 33.524313,47.3400431 33.524313,60.4682148 C33.5244573,61.31051 32.840742,61.9948299 31.9940724,62 Z" id="Path"></path>
            </g>
            <g id="plant-copy-12" transform="translate(55.000000, 160.000000)" fill="#556A4F">
                <g id="Group">
                    <path d="M27.3250043,6.67281323 C21.3865787,0.766634241 9.76581277,0.0817743191 1.54331064,0.0817743191 C0.690995745,0.0817743191 0,0.76936965 0,1.61749027 C0,9.80255253 0.688246809,21.3661323 6.62363404,27.2754786 C9.41033191,29.7451206 13.0529617,31.0392568 16.7813872,30.8843463 C20.6257021,31.0350817 24.3872596,29.7475681 27.3250043,27.2754786 C31.7480426,22.8710389 32.5597021,11.8818949 27.3250043,6.67281323 Z" id="Path"></path>
                    <path d="M66.4281872,6.15682879 C58.2026468,6.15682879 46.5818809,6.84168872 40.6433106,12.7478677 C35.3961702,17.9691868 36.2202723,28.94307 40.6433106,33.3473658 C43.5819234,35.8198872 47.3446383,37.1074008 51.189966,36.9562335 C54.9182468,37.110856 58.5608766,35.8167198 61.3477191,33.3473658 C67.2861447,27.4381634 67.9713532,15.8745837 67.9713532,7.68937743 C67.9697617,6.84255253 67.2793447,6.15682879 66.4281872,6.15682879 Z" id="Path"></path>
                </g>
                <path d="M31.9940724,62 C31.1437943,62 30.45445,61.3141003 30.45445,60.4680712 C30.45445,27.9768767 18.4796893,19.8242064 13.9718158,16.7573329 C13.4281055,16.4119416 12.9132622,16.0236098 12.4321934,15.596215 C11.8414299,14.9877232 11.8584614,14.017899 12.4700092,13.4300875 C13.0666904,12.8566375 14.0125183,12.8566375 14.6091995,13.4300875 C14.9569028,13.7226289 15.3252459,13.9898943 15.7114866,14.2297294 C19.7143316,16.9533658 29.1427327,23.3720426 32.403551,44.4261184 C34.9234973,33.4188358 42.3934155,24.1772854 52.6582384,19.367658 C53.4442873,18.9997194 54.3824654,19.294415 54.8135943,20.0447973 C55.2030104,20.7276811 54.9625481,21.5952522 54.2762348,21.982866 C54.2505431,21.997371 54.2242741,22.0111579 54.1977165,22.0240832 L53.9483054,22.140554 C37.0684611,30.0358683 33.524313,47.3400431 33.524313,60.4682148 C33.5244573,61.31051 32.840742,61.9948299 31.9940724,62 Z" id="Path"></path>
            </g>
            <g id="plant-copy" transform="translate(163.010458, 81.000000)" fill="#556A4F">
                <g id="Group">
                    <path d="M27.3250043,6.67281323 C21.3865787,0.766634241 9.76581277,0.0817743191 1.54331064,0.0817743191 C0.690995745,0.0817743191 0,0.76936965 0,1.61749027 C0,9.80255253 0.688246809,21.3661323 6.62363404,27.2754786 C9.41033191,29.7451206 13.0529617,31.0392568 16.7813872,30.8843463 C20.6257021,31.0350817 24.3872596,29.7475681 27.3250043,27.2754786 C31.7480426,22.8710389 32.5597021,11.8818949 27.3250043,6.67281323 Z" id="Path"></path>
                    <path d="M66.4281872,6.15682879 C58.2026468,6.15682879 46.5818809,6.84168872 40.6433106,12.7478677 C35.3961702,17.9691868 36.2202723,28.94307 40.6433106,33.3473658 C43.5819234,35.8198872 47.3446383,37.1074008 51.189966,36.9562335 C54.9182468,37.110856 58.5608766,35.8167198 61.3477191,33.3473658 C67.2861447,27.4381634 67.9713532,15.8745837 67.9713532,7.68937743 C67.9697617,6.84255253 67.2793447,6.15682879 66.4281872,6.15682879 Z" id="Path"></path>
                </g>
                <path d="M31.9940724,62 C31.1437943,62 30.45445,61.3141003 30.45445,60.4680712 C30.45445,27.9768767 18.4796893,19.8242064 13.9718158,16.7573329 C13.4281055,16.4119416 12.9132622,16.0236098 12.4321934,15.596215 C11.8414299,14.9877232 11.8584614,14.017899 12.4700092,13.4300875 C13.0666904,12.8566375 14.0125183,12.8566375 14.6091995,13.4300875 C14.9569028,13.7226289 15.3252459,13.9898943 15.7114866,14.2297294 C19.7143316,16.9533658 29.1427327,23.3720426 32.403551,44.4261184 C34.9234973,33.4188358 42.3934155,24.1772854 52.6582384,19.367658 C53.4442873,18.9997194 54.3824654,19.294415 54.8135943,20.0447973 C55.2030104,20.7276811 54.9625481,21.5952522 54.2762348,21.982866 C54.2505431,21.997371 54.2242741,22.0111579 54.1977165,22.0240832 L53.9483054,22.140554 C37.0684611,30.0358683 33.524313,47.3400431 33.524313,60.4682148 C33.5244573,61.31051 32.840742,61.9948299 31.9940724,62 Z" id="Path"></path>
            </g>
            <g id="plant-copy-2" transform="translate(185.435811, 164.000000)" fill="#556A4F">
                <g id="Group">
                    <path d="M27.3250043,6.67281323 C21.3865787,0.766634241 9.76581277,0.0817743191 1.54331064,0.0817743191 C0.690995745,0.0817743191 0,0.76936965 0,1.61749027 C0,9.80255253 0.688246809,21.3661323 6.62363404,27.2754786 C9.41033191,29.7451206 13.0529617,31.0392568 16.7813872,30.8843463 C20.6257021,31.0350817 24.3872596,29.7475681 27.3250043,27.2754786 C31.7480426,22.8710389 32.5597021,11.8818949 27.3250043,6.67281323 Z" id="Path"></path>
                    <path d="M66.4281872,6.15682879 C58.2026468,6.15682879 46.5818809,6.84168872 40.6433106,12.7478677 C35.3961702,17.9691868 36.2202723,28.94307 40.6433106,33.3473658 C43.5819234,35.8198872 47.3446383,37.1074008 51.189966,36.9562335 C54.9182468,37.110856 58.5608766,35.8167198 61.3477191,33.3473658 C67.2861447,27.4381634 67.9713532,15.8745837 67.9713532,7.68937743 C67.9697617,6.84255253 67.2793447,6.15682879 66.4281872,6.15682879 Z" id="Path"></path>
                </g>
                <path d="M31.9940724,62 C31.1437943,62 30.45445,61.3141003 30.45445,60.4680712 C30.45445,27.9768767 18.4796893,19.8242064 13.9718158,16.7573329 C13.4281055,16.4119416 12.9132622,16.0236098 12.4321934,15.596215 C11.8414299,14.9877232 11.8584614,14.017899 12.4700092,13.4300875 C13.0666904,12.8566375 14.0125183,12.8566375 14.6091995,13.4300875 C14.9569028,13.7226289 15.3252459,13.9898943 15.7114866,14.2297294 C19.7143316,16.9533658 29.1427327,23.3720426 32.403551,44.4261184 C34.9234973,33.4188358 42.3934155,24.1772854 52.6582384,19.367658 C53.4442873,18.9997194 54.3824654,19.294415 54.8135943,20.0447973 C55.2030104,20.7276811 54.9625481,21.5952522 54.2762348,21.982866 C54.2505431,21.997371 54.2242741,22.0111579 54.1977165,22.0240832 L53.9483054,22.140554 C37.0684611,30.0358683 33.524313,47.3400431 33.524313,60.4682148 C33.5244573,61.31051 32.840742,61.9948299 31.9940724,62 Z" id="Path"></path>
            </g>
            <g id="plant-copy-13" transform="translate(125.000000, 203.000000)" fill="#556A4F">
                <g id="Group">
                    <path d="M27.3250043,6.67281323 C21.3865787,0.766634241 9.76581277,0.0817743191 1.54331064,0.0817743191 C0.690995745,0.0817743191 0,0.76936965 0,1.61749027 C0,9.80255253 0.688246809,21.3661323 6.62363404,27.2754786 C9.41033191,29.7451206 13.0529617,31.0392568 16.7813872,30.8843463 C20.6257021,31.0350817 24.3872596,29.7475681 27.3250043,27.2754786 C31.7480426,22.8710389 32.5597021,11.8818949 27.3250043,6.67281323 Z" id="Path"></path>
                    <path d="M66.4281872,6.15682879 C58.2026468,6.15682879 46.5818809,6.84168872 40.6433106,12.7478677 C35.3961702,17.9691868 36.2202723,28.94307 40.6433106,33.3473658 C43.5819234,35.8198872 47.3446383,37.1074008 51.189966,36.9562335 C54.9182468,37.110856 58.5608766,35.8167198 61.3477191,33.3473658 C67.2861447,27.4381634 67.9713532,15.8745837 67.9713532,7.68937743 C67.9697617,6.84255253 67.2793447,6.15682879 66.4281872,6.15682879 Z" id="Path"></path>
                </g>
                <path d="M31.9940724,62 C31.1437943,62 30.45445,61.3141003 30.45445,60.4680712 C30.45445,27.9768767 18.4796893,19.8242064 13.9718158,16.7573329 C13.4281055,16.4119416 12.9132622,16.0236098 12.4321934,15.596215 C11.8414299,14.9877232 11.8584614,14.017899 12.4700092,13.4300875 C13.0666904,12.8566375 14.0125183,12.8566375 14.6091995,13.4300875 C14.9569028,13.7226289 15.3252459,13.9898943 15.7114866,14.2297294 C19.7143316,16.9533658 29.1427327,23.3720426 32.403551,44.4261184 C34.9234973,33.4188358 42.3934155,24.1772854 52.6582384,19.367658 C53.4442873,18.9997194 54.3824654,19.294415 54.8135943,20.0447973 C55.2030104,20.7276811 54.9625481,21.5952522 54.2762348,21.982866 C54.2505431,21.997371 54.2242741,22.0111579 54.1977165,22.0240832 L53.9483054,22.140554 C37.0684611,30.0358683 33.524313,47.3400431 33.524313,60.4682148 C33.5244573,61.31051 32.840742,61.9948299 31.9940724,62 Z" id="Path"></path>
            </g>
            <g id="plant-copy-3" transform="translate(232.039105, 125.000000)" fill="#556A4F">
                <g id="Group">
                    <path d="M27.3250043,6.67281323 C21.3865787,0.766634241 9.76581277,0.0817743191 1.54331064,0.0817743191 C0.690995745,0.0817743191 0,0.76936965 0,1.61749027 C0,9.80255253 0.688246809,21.3661323 6.62363404,27.2754786 C9.41033191,29.7451206 13.0529617,31.0392568 16.7813872,30.8843463 C20.6257021,31.0350817 24.3872596,29.7475681 27.3250043,27.2754786 C31.7480426,22.8710389 32.5597021,11.8818949 27.3250043,6.67281323 Z" id="Path"></path>
                    <path d="M66.4281872,6.15682879 C58.2026468,6.15682879 46.5818809,6.84168872 40.6433106,12.7478677 C35.3961702,17.9691868 36.2202723,28.94307 40.6433106,33.3473658 C43.5819234,35.8198872 47.3446383,37.1074008 51.189966,36.9562335 C54.9182468,37.110856 58.5608766,35.8167198 61.3477191,33.3473658 C67.2861447,27.4381634 67.9713532,15.8745837 67.9713532,7.68937743 C67.9697617,6.84255253 67.2793447,6.15682879 66.4281872,6.15682879 Z" id="Path"></path>
                </g>
                <path d="M31.9940724,62 C31.1437943,62 30.45445,61.3141003 30.45445,60.4680712 C30.45445,27.9768767 18.4796893,19.8242064 13.9718158,16.7573329 C13.4281055,16.4119416 12.9132622,16.0236098 12.4321934,15.596215 C11.8414299,14.9877232 11.8584614,14.017899 12.4700092,13.4300875 C13.0666904,12.8566375 14.0125183,12.8566375 14.6091995,13.4300875 C14.9569028,13.7226289 15.3252459,13.9898943 15.7114866,14.2297294 C19.7143316,16.9533658 29.1427327,23.3720426 32.403551,44.4261184 C34.9234973,33.4188358 42.3934155,24.1772854 52.6582384,19.367658 C53.4442873,18.9997194 54.3824654,19.294415 54.8135943,20.0447973 C55.2030104,20.7276811 54.9625481,21.5952522 54.2762348,21.982866 C54.2505431,21.997371 54.2242741,22.0111579 54.1977165,22.0240832 L53.9483054,22.140554 C37.0684611,30.0358683 33.524313,47.3400431 33.524313,60.4682148 C33.5244573,61.31051 32.840742,61.9948299 31.9940724,62 Z" id="Path"></path>
            </g>
            <g id="plant-copy-4" transform="translate(260.000000, 207.000000)" fill="#556A4F">
                <g id="Group">
                    <path d="M27.3250043,6.67281323 C21.3865787,0.766634241 9.76581277,0.0817743191 1.54331064,0.0817743191 C0.690995745,0.0817743191 0,0.76936965 0,1.61749027 C0,9.80255253 0.688246809,21.3661323 6.62363404,27.2754786 C9.41033191,29.7451206 13.0529617,31.0392568 16.7813872,30.8843463 C20.6257021,31.0350817 24.3872596,29.7475681 27.3250043,27.2754786 C31.7480426,22.8710389 32.5597021,11.8818949 27.3250043,6.67281323 Z" id="Path"></path>
                    <path d="M66.4281872,6.15682879 C58.2026468,6.15682879 46.5818809,6.84168872 40.6433106,12.7478677 C35.3961702,17.9691868 36.2202723,28.94307 40.6433106,33.3473658 C43.5819234,35.8198872 47.3446383,37.1074008 51.189966,36.9562335 C54.9182468,37.110856 58.5608766,35.8167198 61.3477191,33.3473658 C67.2861447,27.4381634 67.9713532,15.8745837 67.9713532,7.68937743 C67.9697617,6.84255253 67.2793447,6.15682879 66.4281872,6.15682879 Z" id="Path"></path>
                </g>
                <path d="M31.9940724,62 C31.1437943,62 30.45445,61.3141003 30.45445,60.4680712 C30.45445,27.9768767 18.4796893,19.8242064 13.9718158,16.7573329 C13.4281055,16.4119416 12.9132622,16.0236098 12.4321934,15.596215 C11.8414299,14.9877232 11.8584614,14.017899 12.4700092,13.4300875 C13.0666904,12.8566375 14.0125183,12.8566375 14.6091995,13.4300875 C14.9569028,13.7226289 15.3252459,13.9898943 15.7114866,14.2297294 C19.7143316,16.9533658 29.1427327,23.3720426 32.403551,44.4261184 C34.9234973,33.4188358 42.3934155,24.1772854 52.6582384,19.367658 C53.4442873,18.9997194 54.3824654,19.294415 54.8135943,20.0447973 C55.2030104,20.7276811 54.9625481,21.5952522 54.2762348,21.982866 C54.2505431,21.997371 54.2242741,22.0111579 54.1977165,22.0240832 L53.9483054,22.140554 C37.0684611,30.0358683 33.524313,47.3400431 33.524313,60.4682148 C33.5244573,61.31051 32.840742,61.9948299 31.9940724,62 Z" id="Path"></path>
            </g>
            <g id="plant-copy-14" transform="translate(207.000000, 246.000000)" fill="#556A4F">
                <g id="Group">
                    <path d="M27.3250043,6.67281323 C21.3865787,0.766634241 9.76581277,0.0817743191 1.54331064,0.0817743191 C0.690995745,0.0817743191 0,0.76936965 0,1.61749027 C0,9.80255253 0.688246809,21.3661323 6.62363404,27.2754786 C9.41033191,29.7451206 13.0529617,31.0392568 16.7813872,30.8843463 C20.6257021,31.0350817 24.3872596,29.7475681 27.3250043,27.2754786 C31.7480426,22.8710389 32.5597021,11.8818949 27.3250043,6.67281323 Z" id="Path"></path>
                    <path d="M66.4281872,6.15682879 C58.2026468,6.15682879 46.5818809,6.84168872 40.6433106,12.7478677 C35.3961702,17.9691868 36.2202723,28.94307 40.6433106,33.3473658 C43.5819234,35.8198872 47.3446383,37.1074008 51.189966,36.9562335 C54.9182468,37.110856 58.5608766,35.8167198 61.3477191,33.3473658 C67.2861447,27.4381634 67.9713532,15.8745837 67.9713532,7.68937743 C67.9697617,6.84255253 67.2793447,6.15682879 66.4281872,6.15682879 Z" id="Path"></path>
                </g>
                <path d="M31.9940724,62 C31.1437943,62 30.45445,61.3141003 30.45445,60.4680712 C30.45445,27.9768767 18.4796893,19.8242064 13.9718158,16.7573329 C13.4281055,16.4119416 12.9132622,16.0236098 12.4321934,15.596215 C11.8414299,14.9877232 11.8584614,14.017899 12.4700092,13.4300875 C13.0666904,12.8566375 14.0125183,12.8566375 14.6091995,13.4300875 C14.9569028,13.7226289 15.3252459,13.9898943 15.7114866,14.2297294 C19.7143316,16.9533658 29.1427327,23.3720426 32.403551,44.4261184 C34.9234973,33.4188358 42.3934155,24.1772854 52.6582384,19.367658 C53.4442873,18.9997194 54.3824654,19.294415 54.8135943,20.0447973 C55.2030104,20.7276811 54.9625481,21.5952522 54.2762348,21.982866 C54.2505431,21.997371 54.2242741,22.0111579 54.1977165,22.0240832 L53.9483054,22.140554 C37.0684611,30.0358683 33.524313,47.3400431 33.524313,60.4682148 C33.5244573,61.31051 32.840742,61.9948299 31.9940724,62 Z" id="Path"></path>
            </g>
            <g id="plant-copy-5" transform="translate(320.000000, 168.000000)" fill="#556A4F">
                <g id="Group">
                    <path d="M27.3250043,6.67281323 C21.3865787,0.766634241 9.76581277,0.0817743191 1.54331064,0.0817743191 C0.690995745,0.0817743191 0,0.76936965 0,1.61749027 C0,9.80255253 0.688246809,21.3661323 6.62363404,27.2754786 C9.41033191,29.7451206 13.0529617,31.0392568 16.7813872,30.8843463 C20.6257021,31.0350817 24.3872596,29.7475681 27.3250043,27.2754786 C31.7480426,22.8710389 32.5597021,11.8818949 27.3250043,6.67281323 Z" id="Path"></path>
                    <path d="M66.4281872,6.15682879 C58.2026468,6.15682879 46.5818809,6.84168872 40.6433106,12.7478677 C35.3961702,17.9691868 36.2202723,28.94307 40.6433106,33.3473658 C43.5819234,35.8198872 47.3446383,37.1074008 51.189966,36.9562335 C54.9182468,37.110856 58.5608766,35.8167198 61.3477191,33.3473658 C67.2861447,27.4381634 67.9713532,15.8745837 67.9713532,7.68937743 C67.9697617,6.84255253 67.2793447,6.15682879 66.4281872,6.15682879 Z" id="Path"></path>
                </g>
                <path d="M31.9940724,62 C31.1437943,62 30.45445,61.3141003 30.45445,60.4680712 C30.45445,27.9768767 18.4796893,19.8242064 13.9718158,16.7573329 C13.4281055,16.4119416 12.9132622,16.0236098 12.4321934,15.596215 C11.8414299,14.9877232 11.8584614,14.017899 12.4700092,13.4300875 C13.0666904,12.8566375 14.0125183,12.8566375 14.6091995,13.4300875 C14.9569028,13.7226289 15.3252459,13.9898943 15.7114866,14.2297294 C19.7143316,16.9533658 29.1427327,23.3720426 32.403551,44.4261184 C34.9234973,33.4188358 42.3934155,24.1772854 52.6582384,19.367658 C53.4442873,18.9997194 54.3824654,19.294415 54.8135943,20.0447973 C55.2030104,20.7276811 54.9625481,21.5952522 54.2762348,21.982866 C54.2505431,21.997371 54.2242741,22.0111579 54.1977165,22.0240832 L53.9483054,22.140554 C37.0684611,30.0358683 33.524313,47.3400431 33.524313,60.4682148 C33.5244573,61.31051 32.840742,61.9948299 31.9940724,62 Z" id="Path"></path>
            </g>
            <g id="plant-copy-6" transform="translate(390.000000, 129.000000)" fill="#556A4F">
                <g id="Group">
                    <path d="M27.3250043,6.67281323 C21.3865787,0.766634241 9.76581277,0.0817743191 1.54331064,0.0817743191 C0.690995745,0.0817743191 0,0.76936965 0,1.61749027 C0,9.80255253 0.688246809,21.3661323 6.62363404,27.2754786 C9.41033191,29.7451206 13.0529617,31.0392568 16.7813872,30.8843463 C20.6257021,31.0350817 24.3872596,29.7475681 27.3250043,27.2754786 C31.7480426,22.8710389 32.5597021,11.8818949 27.3250043,6.67281323 Z" id="Path"></path>
                    <path d="M66.4281872,6.15682879 C58.2026468,6.15682879 46.5818809,6.84168872 40.6433106,12.7478677 C35.3961702,17.9691868 36.2202723,28.94307 40.6433106,33.3473658 C43.5819234,35.8198872 47.3446383,37.1074008 51.189966,36.9562335 C54.9182468,37.110856 58.5608766,35.8167198 61.3477191,33.3473658 C67.2861447,27.4381634 67.9713532,15.8745837 67.9713532,7.68937743 C67.9697617,6.84255253 67.2793447,6.15682879 66.4281872,6.15682879 Z" id="Path"></path>
                </g>
                <path d="M31.9940724,62 C31.1437943,62 30.45445,61.3141003 30.45445,60.4680712 C30.45445,27.9768767 18.4796893,19.8242064 13.9718158,16.7573329 C13.4281055,16.4119416 12.9132622,16.0236098 12.4321934,15.596215 C11.8414299,14.9877232 11.8584614,14.017899 12.4700092,13.4300875 C13.0666904,12.8566375 14.0125183,12.8566375 14.6091995,13.4300875 C14.9569028,13.7226289 15.3252459,13.9898943 15.7114866,14.2297294 C19.7143316,16.9533658 29.1427327,23.3720426 32.403551,44.4261184 C34.9234973,33.4188358 42.3934155,24.1772854 52.6582384,19.367658 C53.4442873,18.9997194 54.3824654,19.294415 54.8135943,20.0447973 C55.2030104,20.7276811 54.9625481,21.5952522 54.2762348,21.982866 C54.2505431,21.997371 54.2242741,22.0111579 54.1977165,22.0240832 L53.9483054,22.140554 C37.0684611,30.0358683 33.524313,47.3400431 33.524313,60.4682148 C33.5244573,61.31051 32.840742,61.9948299 31.9940724,62 Z" id="Path"></path>
            </g>
            <g id="plant-copy-8" transform="translate(344.000000, 250.000000)" fill="#DAD7AB">
                <g id="Group">
                    <path d="M27.3250043,6.67281323 C21.3865787,0.766634241 9.76581277,0.0817743191 1.54331064,0.0817743191 C0.690995745,0.0817743191 0,0.76936965 0,1.61749027 C0,9.80255253 0.688246809,21.3661323 6.62363404,27.2754786 C9.41033191,29.7451206 13.0529617,31.0392568 16.7813872,30.8843463 C20.6257021,31.0350817 24.3872596,29.7475681 27.3250043,27.2754786 C31.7480426,22.8710389 32.5597021,11.8818949 27.3250043,6.67281323 Z" id="Path"></path>
                    <path d="M66.4281872,6.15682879 C58.2026468,6.15682879 46.5818809,6.84168872 40.6433106,12.7478677 C35.3961702,17.9691868 36.2202723,28.94307 40.6433106,33.3473658 C43.5819234,35.8198872 47.3446383,37.1074008 51.189966,36.9562335 C54.9182468,37.110856 58.5608766,35.8167198 61.3477191,33.3473658 C67.2861447,27.4381634 67.9713532,15.8745837 67.9713532,7.68937743 C67.9697617,6.84255253 67.2793447,6.15682879 66.4281872,6.15682879 Z" id="Path"></path>
                </g>
                <path d="M31.9940724,62 C31.1437943,62 30.45445,61.3141003 30.45445,60.4680712 C30.45445,27.9768767 18.4796893,19.8242064 13.9718158,16.7573329 C13.4281055,16.4119416 12.9132622,16.0236098 12.4321934,15.596215 C11.8414299,14.9877232 11.8584614,14.017899 12.4700092,13.4300875 C13.0666904,12.8566375 14.0125183,12.8566375 14.6091995,13.4300875 C14.9569028,13.7226289 15.3252459,13.9898943 15.7114866,14.2297294 C19.7143316,16.9533658 29.1427327,23.3720426 32.403551,44.4261184 C34.9234973,33.4188358 42.3934155,24.1772854 52.6582384,19.367658 C53.4442873,18.9997194 54.3824654,19.294415 54.8135943,20.0447973 C55.2030104,20.7276811 54.9625481,21.5952522 54.2762348,21.982866 C54.2505431,21.997371 54.2242741,22.0111579 54.1977165,22.0240832 L53.9483054,22.140554 C37.0684611,30.0358683 33.524313,47.3400431 33.524313,60.4682148 C33.5244573,61.31051 32.840742,61.9948299 31.9940724,62 Z" id="Path"></path>
            </g>
            <g id="plant-copy-16" transform="translate(409.000000, 293.000000)" fill="#DAD7AB">
                <g id="Group">
                    <path d="M27.3250043,6.67281323 C21.3865787,0.766634241 9.76581277,0.0817743191 1.54331064,0.0817743191 C0.690995745,0.0817743191 0,0.76936965 0,1.61749027 C0,9.80255253 0.688246809,21.3661323 6.62363404,27.2754786 C9.41033191,29.7451206 13.0529617,31.0392568 16.7813872,30.8843463 C20.6257021,31.0350817 24.3872596,29.7475681 27.3250043,27.2754786 C31.7480426,22.8710389 32.5597021,11.8818949 27.3250043,6.67281323 Z" id="Path"></path>
                    <path d="M66.4281872,6.15682879 C58.2026468,6.15682879 46.5818809,6.84168872 40.6433106,12.7478677 C35.3961702,17.9691868 36.2202723,28.94307 40.6433106,33.3473658 C43.5819234,35.8198872 47.3446383,37.1074008 51.189966,36.9562335 C54.9182468,37.110856 58.5608766,35.8167198 61.3477191,33.3473658 C67.2861447,27.4381634 67.9713532,15.8745837 67.9713532,7.68937743 C67.9697617,6.84255253 67.2793447,6.15682879 66.4281872,6.15682879 Z" id="Path"></path>
                </g>
                <path d="M31.9940724,62 C31.1437943,62 30.45445,61.3141003 30.45445,60.4680712 C30.45445,27.9768767 18.4796893,19.8242064 13.9718158,16.7573329 C13.4281055,16.4119416 12.9132622,16.0236098 12.4321934,15.596215 C11.8414299,14.9877232 11.8584614,14.017899 12.4700092,13.4300875 C13.0666904,12.8566375 14.0125183,12.8566375 14.6091995,13.4300875 C14.9569028,13.7226289 15.3252459,13.9898943 15.7114866,14.2297294 C19.7143316,16.9533658 29.1427327,23.3720426 32.403551,44.4261184 C34.9234973,33.4188358 42.3934155,24.1772854 52.6582384,19.367658 C53.4442873,18.9997194 54.3824654,19.294415 54.8135943,20.0447973 C55.2030104,20.7276811 54.9625481,21.5952522 54.2762348,21.982866 C54.2505431,21.997371 54.2242741,22.0111579 54.1977165,22.0240832 L53.9483054,22.140554 C37.0684611,30.0358683 33.524313,47.3400431 33.524313,60.4682148 C33.5244573,61.31051 32.840742,61.9948299 31.9940724,62 Z" id="Path"></path>
            </g>
            <g id="plant-copy-15" transform="translate(284.000000, 288.000000)" fill="#DAD7AB">
                <g id="Group">
                    <path d="M27.3250043,6.67281323 C21.3865787,0.766634241 9.76581277,0.0817743191 1.54331064,0.0817743191 C0.690995745,0.0817743191 0,0.76936965 0,1.61749027 C0,9.80255253 0.688246809,21.3661323 6.62363404,27.2754786 C9.41033191,29.7451206 13.0529617,31.0392568 16.7813872,30.8843463 C20.6257021,31.0350817 24.3872596,29.7475681 27.3250043,27.2754786 C31.7480426,22.8710389 32.5597021,11.8818949 27.3250043,6.67281323 Z" id="Path"></path>
                    <path d="M66.4281872,6.15682879 C58.2026468,6.15682879 46.5818809,6.84168872 40.6433106,12.7478677 C35.3961702,17.9691868 36.2202723,28.94307 40.6433106,33.3473658 C43.5819234,35.8198872 47.3446383,37.1074008 51.189966,36.9562335 C54.9182468,37.110856 58.5608766,35.8167198 61.3477191,33.3473658 C67.2861447,27.4381634 67.9713532,15.8745837 67.9713532,7.68937743 C67.9697617,6.84255253 67.2793447,6.15682879 66.4281872,6.15682879 Z" id="Path"></path>
                </g>
                <path d="M31.9940724,62 C31.1437943,62 30.45445,61.3141003 30.45445,60.4680712 C30.45445,27.9768767 18.4796893,19.8242064 13.9718158,16.7573329 C13.4281055,16.4119416 12.9132622,16.0236098 12.4321934,15.596215 C11.8414299,14.9877232 11.8584614,14.017899 12.4700092,13.4300875 C13.0666904,12.8566375 14.0125183,12.8566375 14.6091995,13.4300875 C14.9569028,13.7226289 15.3252459,13.9898943 15.7114866,14.2297294 C19.7143316,16.9533658 29.1427327,23.3720426 32.403551,44.4261184 C34.9234973,33.4188358 42.3934155,24.1772854 52.6582384,19.367658 C53.4442873,18.9997194 54.3824654,19.294415 54.8135943,20.0447973 C55.2030104,20.7276811 54.9625481,21.5952522 54.2762348,21.982866 C54.2505431,21.997371 54.2242741,22.0111579 54.1977165,22.0240832 L53.9483054,22.140554 C37.0684611,30.0358683 33.524313,47.3400431 33.524313,60.4682148 C33.5244573,61.31051 32.840742,61.9948299 31.9940724,62 Z" id="Path"></path>
            </g>
            <g id="plant-copy-17" transform="translate(344.000000, 331.000000)" fill="#DAD7AB">
                <g id="Group">
                    <path d="M27.3250043,6.67281323 C21.3865787,0.766634241 9.76581277,0.0817743191 1.54331064,0.0817743191 C0.690995745,0.0817743191 0,0.76936965 0,1.61749027 C0,9.80255253 0.688246809,21.3661323 6.62363404,27.2754786 C9.41033191,29.7451206 13.0529617,31.0392568 16.7813872,30.8843463 C20.6257021,31.0350817 24.3872596,29.7475681 27.3250043,27.2754786 C31.7480426,22.8710389 32.5597021,11.8818949 27.3250043,6.67281323 Z" id="Path"></path>
                    <path d="M66.4281872,6.15682879 C58.2026468,6.15682879 46.5818809,6.84168872 40.6433106,12.7478677 C35.3961702,17.9691868 36.2202723,28.94307 40.6433106,33.3473658 C43.5819234,35.8198872 47.3446383,37.1074008 51.189966,36.9562335 C54.9182468,37.110856 58.5608766,35.8167198 61.3477191,33.3473658 C67.2861447,27.4381634 67.9713532,15.8745837 67.9713532,7.68937743 C67.9697617,6.84255253 67.2793447,6.15682879 66.4281872,6.15682879 Z" id="Path"></path>
                </g>
                <path d="M31.9940724,62 C31.1437943,62 30.45445,61.3141003 30.45445,60.4680712 C30.45445,27.9768767 18.4796893,19.8242064 13.9718158,16.7573329 C13.4281055,16.4119416 12.9132622,16.0236098 12.4321934,15.596215 C11.8414299,14.9877232 11.8584614,14.017899 12.4700092,13.4300875 C13.0666904,12.8566375 14.0125183,12.8566375 14.6091995,13.4300875 C14.9569028,13.7226289 15.3252459,13.9898943 15.7114866,14.2297294 C19.7143316,16.9533658 29.1427327,23.3720426 32.403551,44.4261184 C34.9234973,33.4188358 42.3934155,24.1772854 52.6582384,19.367658 C53.4442873,18.9997194 54.3824654,19.294415 54.8135943,20.0447973 C55.2030104,20.7276811 54.9625481,21.5952522 54.2762348,21.982866 C54.2505431,21.997371 54.2242741,22.0111579 54.1977165,22.0240832 L53.9483054,22.140554 C37.0684611,30.0358683 33.524313,47.3400431 33.524313,60.4682148 C33.5244573,61.31051 32.840742,61.9948299 31.9940724,62 Z" id="Path"></path>
            </g>
            <g id="plant-copy-9" transform="translate(416.000000, 211.000000)" fill="#DAD7AB">
                <g id="Group">
                    <path d="M27.3250043,6.67281323 C21.3865787,0.766634241 9.76581277,0.0817743191 1.54331064,0.0817743191 C0.690995745,0.0817743191 0,0.76936965 0,1.61749027 C0,9.80255253 0.688246809,21.3661323 6.62363404,27.2754786 C9.41033191,29.7451206 13.0529617,31.0392568 16.7813872,30.8843463 C20.6257021,31.0350817 24.3872596,29.7475681 27.3250043,27.2754786 C31.7480426,22.8710389 32.5597021,11.8818949 27.3250043,6.67281323 Z" id="Path"></path>
                    <path d="M66.4281872,6.15682879 C58.2026468,6.15682879 46.5818809,6.84168872 40.6433106,12.7478677 C35.3961702,17.9691868 36.2202723,28.94307 40.6433106,33.3473658 C43.5819234,35.8198872 47.3446383,37.1074008 51.189966,36.9562335 C54.9182468,37.110856 58.5608766,35.8167198 61.3477191,33.3473658 C67.2861447,27.4381634 67.9713532,15.8745837 67.9713532,7.68937743 C67.9697617,6.84255253 67.2793447,6.15682879 66.4281872,6.15682879 Z" id="Path"></path>
                </g>
                <path d="M31.9940724,62 C31.1437943,62 30.45445,61.3141003 30.45445,60.4680712 C30.45445,27.9768767 18.4796893,19.8242064 13.9718158,16.7573329 C13.4281055,16.4119416 12.9132622,16.0236098 12.4321934,15.596215 C11.8414299,14.9877232 11.8584614,14.017899 12.4700092,13.4300875 C13.0666904,12.8566375 14.0125183,12.8566375 14.6091995,13.4300875 C14.9569028,13.7226289 15.3252459,13.9898943 15.7114866,14.2297294 C19.7143316,16.9533658 29.1427327,23.3720426 32.403551,44.4261184 C34.9234973,33.4188358 42.3934155,24.1772854 52.6582384,19.367658 C53.4442873,18.9997194 54.3824654,19.294415 54.8135943,20.0447973 C55.2030104,20.7276811 54.9625481,21.5952522 54.2762348,21.982866 C54.2505431,21.997371 54.2242741,22.0111579 54.1977165,22.0240832 L53.9483054,22.140554 C37.0684611,30.0358683 33.524313,47.3400431 33.524313,60.4682148 C33.5244573,61.31051 32.840742,61.9948299 31.9940724,62 Z" id="Path"></path>
            </g>
            <g id="plant-copy-18" transform="translate(479.000000, 255.000000)" fill="#DAD7AB">
                <g id="Group">
                    <path d="M27.3250043,6.67281323 C21.3865787,0.766634241 9.76581277,0.0817743191 1.54331064,0.0817743191 C0.690995745,0.0817743191 0,0.76936965 0,1.61749027 C0,9.80255253 0.688246809,21.3661323 6.62363404,27.2754786 C9.41033191,29.7451206 13.0529617,31.0392568 16.7813872,30.8843463 C20.6257021,31.0350817 24.3872596,29.7475681 27.3250043,27.2754786 C31.7480426,22.8710389 32.5597021,11.8818949 27.3250043,6.67281323 Z" id="Path"></path>
                    <path d="M66.4281872,6.15682879 C58.2026468,6.15682879 46.5818809,6.84168872 40.6433106,12.7478677 C35.3961702,17.9691868 36.2202723,28.94307 40.6433106,33.3473658 C43.5819234,35.8198872 47.3446383,37.1074008 51.189966,36.9562335 C54.9182468,37.110856 58.5608766,35.8167198 61.3477191,33.3473658 C67.2861447,27.4381634 67.9713532,15.8745837 67.9713532,7.68937743 C67.9697617,6.84255253 67.2793447,6.15682879 66.4281872,6.15682879 Z" id="Path"></path>
                </g>
                <path d="M31.9940724,62 C31.1437943,62 30.45445,61.3141003 30.45445,60.4680712 C30.45445,27.9768767 18.4796893,19.8242064 13.9718158,16.7573329 C13.4281055,16.4119416 12.9132622,16.0236098 12.4321934,15.596215 C11.8414299,14.9877232 11.8584614,14.017899 12.4700092,13.4300875 C13.0666904,12.8566375 14.0125183,12.8566375 14.6091995,13.4300875 C14.9569028,13.7226289 15.3252459,13.9898943 15.7114866,14.2297294 C19.7143316,16.9533658 29.1427327,23.3720426 32.403551,44.4261184 C34.9234973,33.4188358 42.3934155,24.1772854 52.6582384,19.367658 C53.4442873,18.9997194 54.3824654,19.294415 54.8135943,20.0447973 C55.2030104,20.7276811 54.9625481,21.5952522 54.2762348,21.982866 C54.2505431,21.997371 54.2242741,22.0111579 54.1977165,22.0240832 L53.9483054,22.140554 C37.0684611,30.0358683 33.524313,47.3400431 33.524313,60.4682148 C33.5244573,61.31051 32.840742,61.9948299 31.9940724,62 Z" id="Path"></path>
            </g>
            <g id="plant-copy-10" transform="translate(483.000000, 173.000000)" fill="#DAD7AB">
                <g id="Group">
                    <path d="M27.3250043,6.67281323 C21.3865787,0.766634241 9.76581277,0.0817743191 1.54331064,0.0817743191 C0.690995745,0.0817743191 0,0.76936965 0,1.61749027 C0,9.80255253 0.688246809,21.3661323 6.62363404,27.2754786 C9.41033191,29.7451206 13.0529617,31.0392568 16.7813872,30.8843463 C20.6257021,31.0350817 24.3872596,29.7475681 27.3250043,27.2754786 C31.7480426,22.8710389 32.5597021,11.8818949 27.3250043,6.67281323 Z" id="Path"></path>
                    <path d="M66.4281872,6.15682879 C58.2026468,6.15682879 46.5818809,6.84168872 40.6433106,12.7478677 C35.3961702,17.9691868 36.2202723,28.94307 40.6433106,33.3473658 C43.5819234,35.8198872 47.3446383,37.1074008 51.189966,36.9562335 C54.9182468,37.110856 58.5608766,35.8167198 61.3477191,33.3473658 C67.2861447,27.4381634 67.9713532,15.8745837 67.9713532,7.68937743 C67.9697617,6.84255253 67.2793447,6.15682879 66.4281872,6.15682879 Z" id="Path"></path>
                </g>
                <path d="M31.9940724,62 C31.1437943,62 30.45445,61.3141003 30.45445,60.4680712 C30.45445,27.9768767 18.4796893,19.8242064 13.9718158,16.7573329 C13.4281055,16.4119416 12.9132622,16.0236098 12.4321934,15.596215 C11.8414299,14.9877232 11.8584614,14.017899 12.4700092,13.4300875 C13.0666904,12.8566375 14.0125183,12.8566375 14.6091995,13.4300875 C14.9569028,13.7226289 15.3252459,13.9898943 15.7114866,14.2297294 C19.7143316,16.9533658 29.1427327,23.3720426 32.403551,44.4261184 C34.9234973,33.4188358 42.3934155,24.1772854 52.6582384,19.367658 C53.4442873,18.9997194 54.3824654,19.294415 54.8135943,20.0447973 C55.2030104,20.7276811 54.9625481,21.5952522 54.2762348,21.982866 C54.2505431,21.997371 54.2242741,22.0111579 54.1977165,22.0240832 L53.9483054,22.140554 C37.0684611,30.0358683 33.524313,47.3400431 33.524313,60.4682148 C33.5244573,61.31051 32.840742,61.9948299 31.9940724,62 Z" id="Path"></path>
            </g>
            <g id="plant-copy-19" transform="translate(549.000000, 216.000000)" fill="#DAD7AB">
                <g id="Group">
                    <path d="M27.3250043,6.67281323 C21.3865787,0.766634241 9.76581277,0.0817743191 1.54331064,0.0817743191 C0.690995745,0.0817743191 0,0.76936965 0,1.61749027 C0,9.80255253 0.688246809,21.3661323 6.62363404,27.2754786 C9.41033191,29.7451206 13.0529617,31.0392568 16.7813872,30.8843463 C20.6257021,31.0350817 24.3872596,29.7475681 27.3250043,27.2754786 C31.7480426,22.8710389 32.5597021,11.8818949 27.3250043,6.67281323 Z" id="Path"></path>
                    <path d="M66.4281872,6.15682879 C58.2026468,6.15682879 46.5818809,6.84168872 40.6433106,12.7478677 C35.3961702,17.9691868 36.2202723,28.94307 40.6433106,33.3473658 C43.5819234,35.8198872 47.3446383,37.1074008 51.189966,36.9562335 C54.9182468,37.110856 58.5608766,35.8167198 61.3477191,33.3473658 C67.2861447,27.4381634 67.9713532,15.8745837 67.9713532,7.68937743 C67.9697617,6.84255253 67.2793447,6.15682879 66.4281872,6.15682879 Z" id="Path"></path>
                </g>
                <path d="M31.9940724,62 C31.1437943,62 30.45445,61.3141003 30.45445,60.4680712 C30.45445,27.9768767 18.4796893,19.8242064 13.9718158,16.7573329 C13.4281055,16.4119416 12.9132622,16.0236098 12.4321934,15.596215 C11.8414299,14.9877232 11.8584614,14.017899 12.4700092,13.4300875 C13.0666904,12.8566375 14.0125183,12.8566375 14.6091995,13.4300875 C14.9569028,13.7226289 15.3252459,13.9898943 15.7114866,14.2297294 C19.7143316,16.9533658 29.1427327,23.3720426 32.403551,44.4261184 C34.9234973,33.4188358 42.3934155,24.1772854 52.6582384,19.367658 C53.4442873,18.9997194 54.3824654,19.294415 54.8135943,20.0447973 C55.2030104,20.7276811 54.9625481,21.5952522 54.2762348,21.982866 C54.2505431,21.997371 54.2242741,22.0111579 54.1977165,22.0240832 L53.9483054,22.140554 C37.0684611,30.0358683 33.524313,47.3400431 33.524313,60.4682148 C33.5244573,61.31051 32.840742,61.9948299 31.9940724,62 Z" id="Path"></path>
            </g>
            <g id="plant-copy-11" transform="translate(544.000000, 134.000000)" fill="#DAD7AB">
                <g id="Group">
                    <path d="M27.3250043,6.67281323 C21.3865787,0.766634241 9.76581277,0.0817743191 1.54331064,0.0817743191 C0.690995745,0.0817743191 0,0.76936965 0,1.61749027 C0,9.80255253 0.688246809,21.3661323 6.62363404,27.2754786 C9.41033191,29.7451206 13.0529617,31.0392568 16.7813872,30.8843463 C20.6257021,31.0350817 24.3872596,29.7475681 27.3250043,27.2754786 C31.7480426,22.8710389 32.5597021,11.8818949 27.3250043,6.67281323 Z" id="Path"></path>
                    <path d="M66.4281872,6.15682879 C58.2026468,6.15682879 46.5818809,6.84168872 40.6433106,12.7478677 C35.3961702,17.9691868 36.2202723,28.94307 40.6433106,33.3473658 C43.5819234,35.8198872 47.3446383,37.1074008 51.189966,36.9562335 C54.9182468,37.110856 58.5608766,35.8167198 61.3477191,33.3473658 C67.2861447,27.4381634 67.9713532,15.8745837 67.9713532,7.68937743 C67.9697617,6.84255253 67.2793447,6.15682879 66.4281872,6.15682879 Z" id="Path"></path>
                </g>
                <path d="M31.9940724,62 C31.1437943,62 30.45445,61.3141003 30.45445,60.4680712 C30.45445,27.9768767 18.4796893,19.8242064 13.9718158,16.7573329 C13.4281055,16.4119416 12.9132622,16.0236098 12.4321934,15.596215 C11.8414299,14.9877232 11.8584614,14.017899 12.4700092,13.4300875 C13.0666904,12.8566375 14.0125183,12.8566375 14.6091995,13.4300875 C14.9569028,13.7226289 15.3252459,13.9898943 15.7114866,14.2297294 C19.7143316,16.9533658 29.1427327,23.3720426 32.403551,44.4261184 C34.9234973,33.4188358 42.3934155,24.1772854 52.6582384,19.367658 C53.4442873,18.9997194 54.3824654,19.294415 54.8135943,20.0447973 C55.2030104,20.7276811 54.9625481,21.5952522 54.2762348,21.982866 C54.2505431,21.997371 54.2242741,22.0111579 54.1977165,22.0240832 L53.9483054,22.140554 C37.0684611,30.0358683 33.524313,47.3400431 33.524313,60.4682148 C33.5244573,61.31051 32.840742,61.9948299 31.9940724,62 Z" id="Path"></path>
            </g>
            <g id="plant-copy-20" transform="translate(611.000000, 178.000000)" fill="#DAD7AB">
                <g id="Group">
                    <path d="M27.3250043,6.67281323 C21.3865787,0.766634241 9.76581277,0.0817743191 1.54331064,0.0817743191 C0.690995745,0.0817743191 0,0.76936965 0,1.61749027 C0,9.80255253 0.688246809,21.3661323 6.62363404,27.2754786 C9.41033191,29.7451206 13.0529617,31.0392568 16.7813872,30.8843463 C20.6257021,31.0350817 24.3872596,29.7475681 27.3250043,27.2754786 C31.7480426,22.8710389 32.5597021,11.8818949 27.3250043,6.67281323 Z" id="Path"></path>
                    <path d="M66.4281872,6.15682879 C58.2026468,6.15682879 46.5818809,6.84168872 40.6433106,12.7478677 C35.3961702,17.9691868 36.2202723,28.94307 40.6433106,33.3473658 C43.5819234,35.8198872 47.3446383,37.1074008 51.189966,36.9562335 C54.9182468,37.110856 58.5608766,35.8167198 61.3477191,33.3473658 C67.2861447,27.4381634 67.9713532,15.8745837 67.9713532,7.68937743 C67.9697617,6.84255253 67.2793447,6.15682879 66.4281872,6.15682879 Z" id="Path"></path>
                </g>
                <path d="M31.9940724,62 C31.1437943,62 30.45445,61.3141003 30.45445,60.4680712 C30.45445,27.9768767 18.4796893,19.8242064 13.9718158,16.7573329 C13.4281055,16.4119416 12.9132622,16.0236098 12.4321934,15.596215 C11.8414299,14.9877232 11.8584614,14.017899 12.4700092,13.4300875 C13.0666904,12.8566375 14.0125183,12.8566375 14.6091995,13.4300875 C14.9569028,13.7226289 15.3252459,13.9898943 15.7114866,14.2297294 C19.7143316,16.9533658 29.1427327,23.3720426 32.403551,44.4261184 C34.9234973,33.4188358 42.3934155,24.1772854 52.6582384,19.367658 C53.4442873,18.9997194 54.3824654,19.294415 54.8135943,20.0447973 C55.2030104,20.7276811 54.9625481,21.5952522 54.2762348,21.982866 C54.2505431,21.997371 54.2242741,22.0111579 54.1977165,22.0240832 L53.9483054,22.140554 C37.0684611,30.0358683 33.524313,47.3400431 33.524313,60.4682148 C33.5244573,61.31051 32.840742,61.9948299 31.9940724,62 Z" id="Path"></path>
            </g>
            <g id="plant-copy-7" transform="translate(461.000000, 90.000000)" fill="#556A4F">
                <g id="Group">
                    <path d="M27.3250043,6.67281323 C21.3865787,0.766634241 9.76581277,0.0817743191 1.54331064,0.0817743191 C0.690995745,0.0817743191 0,0.76936965 0,1.61749027 C0,9.80255253 0.688246809,21.3661323 6.62363404,27.2754786 C9.41033191,29.7451206 13.0529617,31.0392568 16.7813872,30.8843463 C20.6257021,31.0350817 24.3872596,29.7475681 27.3250043,27.2754786 C31.7480426,22.8710389 32.5597021,11.8818949 27.3250043,6.67281323 Z" id="Path"></path>
                    <path d="M66.4281872,6.15682879 C58.2026468,6.15682879 46.5818809,6.84168872 40.6433106,12.7478677 C35.3961702,17.9691868 36.2202723,28.94307 40.6433106,33.3473658 C43.5819234,35.8198872 47.3446383,37.1074008 51.189966,36.9562335 C54.9182468,37.110856 58.5608766,35.8167198 61.3477191,33.3473658 C67.2861447,27.4381634 67.9713532,15.8745837 67.9713532,7.68937743 C67.9697617,6.84255253 67.2793447,6.15682879 66.4281872,6.15682879 Z" id="Path"></path>
                </g>
                <path d="M31.9940724,62 C31.1437943,62 30.45445,61.3141003 30.45445,60.4680712 C30.45445,27.9768767 18.4796893,19.8242064 13.9718158,16.7573329 C13.4281055,16.4119416 12.9132622,16.0236098 12.4321934,15.596215 C11.8414299,14.9877232 11.8584614,14.017899 12.4700092,13.4300875 C13.0666904,12.8566375 14.0125183,12.8566375 14.6091995,13.4300875 C14.9569028,13.7226289 15.3252459,13.9898943 15.7114866,14.2297294 C19.7143316,16.9533658 29.1427327,23.3720426 32.403551,44.4261184 C34.9234973,33.4188358 42.3934155,24.1772854 52.6582384,19.367658 C53.4442873,18.9997194 54.3824654,19.294415 54.8135943,20.0447973 C55.2030104,20.7276811 54.9625481,21.5952522 54.2762348,21.982866 C54.2505431,21.997371 54.2242741,22.0111579 54.1977165,22.0240832 L53.9483054,22.140554 C37.0684611,30.0358683 33.524313,47.3400431 33.524313,60.4682148 C33.5244573,61.31051 32.840742,61.9948299 31.9940724,62 Z" id="Path"></path>
            </g>
            <path d="M338.260864,113.247381 C340.395179,117.486972 342.271223,123.033257 343.403551,130.344344 C344.555916,125.310744 346.743422,120.646394 349.759981,116.606265 C347.11357,111.398691 347.261382,103.026458 351.643311,98.6660934 C357.581881,92.7599144 369.202647,92.0750545 377.428187,92.0750545 C378.279345,92.0750545 378.969762,92.7607782 378.971353,93.6076031 C378.971353,101.792809 378.286145,113.356389 372.347719,119.265591 C369.560877,121.734946 365.918247,123.029082 362.189966,122.874459 C358.354073,123.025256 354.600388,121.744422 351.664955,119.283769 C346.014586,127.604533 344.524313,137.873467 344.524313,146.38644 C344.524457,147.228736 343.840742,147.913056 342.994072,147.918226 C342.143794,147.918226 341.45445,147.232326 341.45445,146.386297 C341.45445,131.334916 338.884716,121.506482 335.677951,114.987072 C333.272898,116.27437 330.548583,116.911074 327.781387,116.802572 C324.052962,116.957482 320.410332,115.663346 317.623634,113.193704 C311.688247,107.284358 311,95.7207782 311,87.535716 C311,86.6875953 311.690996,86 312.543311,86 C320.765813,86 332.386579,86.6848599 338.325004,92.5910389 C343.559702,97.8001206 342.748043,108.789265 338.325004,113.193704 C338.303668,113.211659 338.282287,113.229551 338.260864,113.247381 Z" id="Combined-Shape" fill="#BBBAA9"></path>
            <path d="M266.260864,69.2473809 C268.395179,73.486972 270.271223,79.0332567 271.403551,86.3443441 C272.555916,81.3107436 274.743422,76.6463944 277.759981,72.6062655 C275.11357,67.3986913 275.261382,59.0264582 279.643311,54.6660934 C285.581881,48.7599144 297.202647,48.0750545 305.428187,48.0750545 C306.279345,48.0750545 306.969762,48.7607782 306.971353,49.6076031 C306.971353,57.7928093 306.286145,69.3563891 300.347719,75.2655914 C297.560877,77.7349455 293.918247,79.0290817 290.189966,78.8744591 C286.354073,79.0252556 282.600388,77.744422 279.664955,75.2837691 C274.014586,83.6045332 272.524313,93.8734673 272.524313,102.38644 C272.524457,103.228736 271.840742,103.913056 270.994072,103.918226 C270.143794,103.918226 269.45445,103.232326 269.45445,102.386297 C269.45445,87.334916 266.884716,77.5064816 263.677951,70.9870716 C261.272898,72.2743701 258.548583,72.9110736 255.781387,72.802572 C252.052962,72.9574825 248.410332,71.6633463 245.623634,69.1937043 C239.688247,63.284358 239,51.7207782 239,43.535716 C239,42.6875953 239.690996,42 240.543311,42 C248.765813,42 260.386579,42.6848599 266.325004,48.5910389 C271.559702,53.8001206 270.748043,64.7892646 266.325004,69.1937043 C266.303668,69.211659 266.282287,69.2295512 266.260864,69.2473809 Z" id="Combined-Shape-Copy" fill="#BBBAA9"></path>
            <path d="M330.260864,30.2473809 C332.395179,34.486972 334.271223,40.0332567 335.403551,47.3443441 C336.555916,42.3107436 338.743422,37.6463944 341.759981,33.6062655 C339.11357,28.3986913 339.261382,20.0264582 343.643311,15.6660934 C349.581881,9.7599144 361.202647,9.07505447 369.428187,9.07505447 C370.279345,9.07505447 370.969762,9.76077821 370.971353,10.6076031 C370.971353,18.7928093 370.286145,30.3563891 364.347719,36.2655914 C361.560877,38.7349455 357.918247,40.0290817 354.189966,39.8744591 C350.354073,40.0252556 346.600388,38.744422 343.664955,36.2837691 C338.014586,44.6045332 336.524313,54.8734673 336.524313,63.3864405 C336.524457,64.2287356 335.840742,64.9130556 334.994072,64.9182257 C334.143794,64.9182257 333.45445,64.232326 333.45445,63.3862969 C333.45445,48.334916 330.884716,38.5064816 327.677951,31.9870716 C325.272898,33.2743701 322.548583,33.9110736 319.781387,33.802572 C316.052962,33.9574825 312.410332,32.6633463 309.623634,30.1937043 C303.688247,24.284358 303,12.7207782 303,4.53571595 C303,3.68759533 303.690996,3 304.543311,3 C312.765813,3 324.386579,3.68485992 330.325004,9.59103891 C335.559702,14.8001206 334.748043,25.7892646 330.325004,30.1937043 C330.303668,30.211659 330.282287,30.2295512 330.260864,30.2473809 Z" id="Combined-Shape-Copy-2" fill="#BBBAA9"></path>
            <path d="M407.260864,74.2473809 C409.395179,78.486972 411.271223,84.0332567 412.403551,91.3443441 C413.555916,86.3107436 415.743422,81.6463944 418.759981,77.6062655 C416.11357,72.3986913 416.261382,64.0264582 420.643311,59.6660934 C426.581881,53.7599144 438.202647,53.0750545 446.428187,53.0750545 C447.279345,53.0750545 447.969762,53.7607782 447.971353,54.6076031 C447.971353,62.7928093 447.286145,74.3563891 441.347719,80.2655914 C438.560877,82.7349455 434.918247,84.0290817 431.189966,83.8744591 C427.354073,84.0252556 423.600388,82.744422 420.664955,80.2837691 C415.014586,88.6045332 413.524313,98.8734673 413.524313,107.38644 C413.524457,108.228736 412.840742,108.913056 411.994072,108.918226 C411.143794,108.918226 410.45445,108.232326 410.45445,107.386297 C410.45445,92.334916 407.884716,82.5064816 404.677951,75.9870716 C402.272898,77.2743701 399.548583,77.9110736 396.781387,77.802572 C393.052962,77.9574825 389.410332,76.6633463 386.623634,74.1937043 C380.688247,68.284358 380,56.7207782 380,48.535716 C380,47.6875953 380.690996,47 381.543311,47 C389.765813,47 401.386579,47.6848599 407.325004,53.5910389 C412.559702,58.8001206 411.748043,69.7892646 407.325004,74.1937043 C407.303668,74.211659 407.282287,74.2295512 407.260864,74.2473809 Z" id="Combined-Shape-Copy-3" fill="#BBBAA9"></path>
        </g>
    </g>
</svg>