<?xml version="1.0" encoding="UTF-8"?>
<svg width="448px" height="291px" viewBox="0 0 448 291" version="1.1" xmlns="http://www.w3.org/2000/svg" xmlns:xlink="http://www.w3.org/1999/xlink">
    <!-- Generator: Sketch 52.6 (67491) - http://www.bohemiancoding.com/sketch -->
    <title>Group 12</title>
    <desc>Created with Sketch.</desc>
    <g id="Page-1" stroke="none" stroke-width="1" fill="none" fill-rule="evenodd">
        <g id="Group-12">
            <path d="M213.83226,1.45243214 L447.381457,141.116142 L241.50405,260.124402 L0.487176732,121.980307 L210.071589,1.42058246 C211.238331,0.749434846 212.677066,0.761619707 213.83226,1.45243214 Z" id="Rectangle-Copy-3" fill="#618058"></path>
            <path d="M213.975948,1.45417126 L320.052132,65.0196227 L225.866522,119.342862 L115.359579,55.8603867 L210.215502,1.41878399 C211.382826,0.748809898 212.821453,0.762347942 213.975948,1.45417126 Z" id="Rectangle-Copy-3" fill="#6B975E"></path>
            <polygon id="Rectangle" fill="#7F5F51" points="447.487177 141 447.487177 170 241.483205 290.499196 241.483205 260.124402"></polygon>
            <polygon id="Path-4" fill="#769F69" points="116.071146 56 0.487176732 122 176 222.499199 385 104 320.052132 65 226.322726 119.089419"></polygon>
            <polygon id="Rectangle" fill="#9D6D58" points="0.487176732 121.962451 241.483205 260.0952 241.483205 290.499196 0.487176732 150.798409"></polygon>
            <g id="plant-copy" transform="translate(23.000000, 67.000000)" fill="#556A4F">
                <g id="Group">
                    <path d="M27.3250043,6.67281323 C21.3865787,0.766634241 9.76581277,0.0817743191 1.54331064,0.0817743191 C0.690995745,0.0817743191 0,0.76936965 0,1.61749027 C0,9.80255253 0.688246809,21.3661323 6.62363404,27.2754786 C9.41033191,29.7451206 13.0529617,31.0392568 16.7813872,30.8843463 C20.6257021,31.0350817 24.3872596,29.7475681 27.3250043,27.2754786 C31.7480426,22.8710389 32.5597021,11.8818949 27.3250043,6.67281323 Z" id="Path"></path>
                    <path d="M66.4281872,6.15682879 C58.2026468,6.15682879 46.5818809,6.84168872 40.6433106,12.7478677 C35.3961702,17.9691868 36.2202723,28.94307 40.6433106,33.3473658 C43.5819234,35.8198872 47.3446383,37.1074008 51.189966,36.9562335 C54.9182468,37.110856 58.5608766,35.8167198 61.3477191,33.3473658 C67.2861447,27.4381634 67.9713532,15.8745837 67.9713532,7.68937743 C67.9697617,6.84255253 67.2793447,6.15682879 66.4281872,6.15682879 Z" id="Path"></path>
                </g>
                <path d="M31.9940724,62 C31.1437943,62 30.45445,61.3141003 30.45445,60.4680712 C30.45445,27.9768767 18.4796893,19.8242064 13.9718158,16.7573329 C13.4281055,16.4119416 12.9132622,16.0236098 12.4321934,15.596215 C11.8414299,14.9877232 11.8584614,14.017899 12.4700092,13.4300875 C13.0666904,12.8566375 14.0125183,12.8566375 14.6091995,13.4300875 C14.9569028,13.7226289 15.3252459,13.9898943 15.7114866,14.2297294 C19.7143316,16.9533658 29.1427327,23.3720426 32.403551,44.4261184 C34.9234973,33.4188358 42.3934155,24.1772854 52.6582384,19.367658 C53.4442873,18.9997194 54.3824654,19.294415 54.8135943,20.0447973 C55.2030104,20.7276811 54.9625481,21.5952522 54.2762348,21.982866 C54.2505431,21.997371 54.2242741,22.0111579 54.1977165,22.0240832 L53.9483054,22.140554 C37.0684611,30.0358683 33.524313,47.3400431 33.524313,60.4682148 C33.5244573,61.31051 32.840742,61.9948299 31.9940724,62 Z" id="Path"></path>
            </g>
            <g id="plant-copy-3" transform="translate(104.000000, 65.000000)" fill="#556A4F">
                <g id="Group">
                    <path d="M27.3250043,6.67281323 C21.3865787,0.766634241 9.76581277,0.0817743191 1.54331064,0.0817743191 C0.690995745,0.0817743191 0,0.76936965 0,1.61749027 C0,9.80255253 0.688246809,21.3661323 6.62363404,27.2754786 C9.41033191,29.7451206 13.0529617,31.0392568 16.7813872,30.8843463 C20.6257021,31.0350817 24.3872596,29.7475681 27.3250043,27.2754786 C31.7480426,22.8710389 32.5597021,11.8818949 27.3250043,6.67281323 Z" id="Path"></path>
                    <path d="M66.4281872,6.15682879 C58.2026468,6.15682879 46.5818809,6.84168872 40.6433106,12.7478677 C35.3961702,17.9691868 36.2202723,28.94307 40.6433106,33.3473658 C43.5819234,35.8198872 47.3446383,37.1074008 51.189966,36.9562335 C54.9182468,37.110856 58.5608766,35.8167198 61.3477191,33.3473658 C67.2861447,27.4381634 67.9713532,15.8745837 67.9713532,7.68937743 C67.9697617,6.84255253 67.2793447,6.15682879 66.4281872,6.15682879 Z" id="Path"></path>
                </g>
                <path d="M31.9940724,62 C31.1437943,62 30.45445,61.3141003 30.45445,60.4680712 C30.45445,27.9768767 18.4796893,19.8242064 13.9718158,16.7573329 C13.4281055,16.4119416 12.9132622,16.0236098 12.4321934,15.596215 C11.8414299,14.9877232 11.8584614,14.017899 12.4700092,13.4300875 C13.0666904,12.8566375 14.0125183,12.8566375 14.6091995,13.4300875 C14.9569028,13.7226289 15.3252459,13.9898943 15.7114866,14.2297294 C19.7143316,16.9533658 29.1427327,23.3720426 32.403551,44.4261184 C34.9234973,33.4188358 42.3934155,24.1772854 52.6582384,19.367658 C53.4442873,18.9997194 54.3824654,19.294415 54.8135943,20.0447973 C55.2030104,20.7276811 54.9625481,21.5952522 54.2762348,21.982866 C54.2505431,21.997371 54.2242741,22.0111579 54.1977165,22.0240832 L53.9483054,22.140554 C37.0684611,30.0358683 33.524313,47.3400431 33.524313,60.4682148 C33.5244573,61.31051 32.840742,61.9948299 31.9940724,62 Z" id="Path"></path>
            </g>
            <g id="plant-copy-5" transform="translate(131.500000, 134.000000)" fill="#556A4F">
                <g id="Group">
                    <path d="M27.3250043,6.67281323 C21.3865787,0.766634241 9.76581277,0.0817743191 1.54331064,0.0817743191 C0.690995745,0.0817743191 0,0.76936965 0,1.61749027 C0,9.80255253 0.688246809,21.3661323 6.62363404,27.2754786 C9.41033191,29.7451206 13.0529617,31.0392568 16.7813872,30.8843463 C20.6257021,31.0350817 24.3872596,29.7475681 27.3250043,27.2754786 C31.7480426,22.8710389 32.5597021,11.8818949 27.3250043,6.67281323 Z" id="Path"></path>
                    <path d="M66.4281872,6.15682879 C58.2026468,6.15682879 46.5818809,6.84168872 40.6433106,12.7478677 C35.3961702,17.9691868 36.2202723,28.94307 40.6433106,33.3473658 C43.5819234,35.8198872 47.3446383,37.1074008 51.189966,36.9562335 C54.9182468,37.110856 58.5608766,35.8167198 61.3477191,33.3473658 C67.2861447,27.4381634 67.9713532,15.8745837 67.9713532,7.68937743 C67.9697617,6.84255253 67.2793447,6.15682879 66.4281872,6.15682879 Z" id="Path"></path>
                </g>
                <path d="M31.9940724,62 C31.1437943,62 30.45445,61.3141003 30.45445,60.4680712 C30.45445,27.9768767 18.4796893,19.8242064 13.9718158,16.7573329 C13.4281055,16.4119416 12.9132622,16.0236098 12.4321934,15.596215 C11.8414299,14.9877232 11.8584614,14.017899 12.4700092,13.4300875 C13.0666904,12.8566375 14.0125183,12.8566375 14.6091995,13.4300875 C14.9569028,13.7226289 15.3252459,13.9898943 15.7114866,14.2297294 C19.7143316,16.9533658 29.1427327,23.3720426 32.403551,44.4261184 C34.9234973,33.4188358 42.3934155,24.1772854 52.6582384,19.367658 C53.4442873,18.9997194 54.3824654,19.294415 54.8135943,20.0447973 C55.2030104,20.7276811 54.9625481,21.5952522 54.2762348,21.982866 C54.2505431,21.997371 54.2242741,22.0111579 54.1977165,22.0240832 L53.9483054,22.140554 C37.0684611,30.0358683 33.524313,47.3400431 33.524313,60.4682148 C33.5244573,61.31051 32.840742,61.9948299 31.9940724,62 Z" id="Path"></path>
            </g>
            <g id="plant-copy-6" transform="translate(203.000000, 100.918226)" fill="#556A4F">
                <g id="Group">
                    <path d="M27.3250043,6.67281323 C21.3865787,0.766634241 9.76581277,0.0817743191 1.54331064,0.0817743191 C0.690995745,0.0817743191 0,0.76936965 0,1.61749027 C0,9.80255253 0.688246809,21.3661323 6.62363404,27.2754786 C9.41033191,29.7451206 13.0529617,31.0392568 16.7813872,30.8843463 C20.6257021,31.0350817 24.3872596,29.7475681 27.3250043,27.2754786 C31.7480426,22.8710389 32.5597021,11.8818949 27.3250043,6.67281323 Z" id="Path"></path>
                    <path d="M66.4281872,6.15682879 C58.2026468,6.15682879 46.5818809,6.84168872 40.6433106,12.7478677 C35.3961702,17.9691868 36.2202723,28.94307 40.6433106,33.3473658 C43.5819234,35.8198872 47.3446383,37.1074008 51.189966,36.9562335 C54.9182468,37.110856 58.5608766,35.8167198 61.3477191,33.3473658 C67.2861447,27.4381634 67.9713532,15.8745837 67.9713532,7.68937743 C67.9697617,6.84255253 67.2793447,6.15682879 66.4281872,6.15682879 Z" id="Path"></path>
                </g>
                <path d="M31.9940724,62 C31.1437943,62 30.45445,61.3141003 30.45445,60.4680712 C30.45445,27.9768767 18.4796893,19.8242064 13.9718158,16.7573329 C13.4281055,16.4119416 12.9132622,16.0236098 12.4321934,15.596215 C11.8414299,14.9877232 11.8584614,14.017899 12.4700092,13.4300875 C13.0666904,12.8566375 14.0125183,12.8566375 14.6091995,13.4300875 C14.9569028,13.7226289 15.3252459,13.9898943 15.7114866,14.2297294 C19.7143316,16.9533658 29.1427327,23.3720426 32.403551,44.4261184 C34.9234973,33.4188358 42.3934155,24.1772854 52.6582384,19.367658 C53.4442873,18.9997194 54.3824654,19.294415 54.8135943,20.0447973 C55.2030104,20.7276811 54.9625481,21.5952522 54.2762348,21.982866 C54.2505431,21.997371 54.2242741,22.0111579 54.1977165,22.0240832 L53.9483054,22.140554 C37.0684611,30.0358683 33.524313,47.3400431 33.524313,60.4682148 C33.5244573,61.31051 32.840742,61.9948299 31.9940724,62 Z" id="Path"></path>
            </g>
            <g id="plant-copy-8" transform="translate(213.000000, 176.000000)" fill="#DAD7AB">
                <g id="Group">
                    <path d="M27.3250043,6.67281323 C21.3865787,0.766634241 9.76581277,0.0817743191 1.54331064,0.0817743191 C0.690995745,0.0817743191 0,0.76936965 0,1.61749027 C0,9.80255253 0.688246809,21.3661323 6.62363404,27.2754786 C9.41033191,29.7451206 13.0529617,31.0392568 16.7813872,30.8843463 C20.6257021,31.0350817 24.3872596,29.7475681 27.3250043,27.2754786 C31.7480426,22.8710389 32.5597021,11.8818949 27.3250043,6.67281323 Z" id="Path"></path>
                    <path d="M66.4281872,6.15682879 C58.2026468,6.15682879 46.5818809,6.84168872 40.6433106,12.7478677 C35.3961702,17.9691868 36.2202723,28.94307 40.6433106,33.3473658 C43.5819234,35.8198872 47.3446383,37.1074008 51.189966,36.9562335 C54.9182468,37.110856 58.5608766,35.8167198 61.3477191,33.3473658 C67.2861447,27.4381634 67.9713532,15.8745837 67.9713532,7.68937743 C67.9697617,6.84255253 67.2793447,6.15682879 66.4281872,6.15682879 Z" id="Path"></path>
                </g>
                <path d="M31.9940724,62 C31.1437943,62 30.45445,61.3141003 30.45445,60.4680712 C30.45445,27.9768767 18.4796893,19.8242064 13.9718158,16.7573329 C13.4281055,16.4119416 12.9132622,16.0236098 12.4321934,15.596215 C11.8414299,14.9877232 11.8584614,14.017899 12.4700092,13.4300875 C13.0666904,12.8566375 14.0125183,12.8566375 14.6091995,13.4300875 C14.9569028,13.7226289 15.3252459,13.9898943 15.7114866,14.2297294 C19.7143316,16.9533658 29.1427327,23.3720426 32.403551,44.4261184 C34.9234973,33.4188358 42.3934155,24.1772854 52.6582384,19.367658 C53.4442873,18.9997194 54.3824654,19.294415 54.8135943,20.0447973 C55.2030104,20.7276811 54.9625481,21.5952522 54.2762348,21.982866 C54.2505431,21.997371 54.2242741,22.0111579 54.1977165,22.0240832 L53.9483054,22.140554 C37.0684611,30.0358683 33.524313,47.3400431 33.524313,60.4682148 C33.5244573,61.31051 32.840742,61.9948299 31.9940724,62 Z" id="Path"></path>
            </g>
            <g id="plant-copy-10" transform="translate(294.000000, 132.000000)" fill="#DAD7AB">
                <g id="Group">
                    <path d="M27.3250043,6.67281323 C21.3865787,0.766634241 9.76581277,0.0817743191 1.54331064,0.0817743191 C0.690995745,0.0817743191 0,0.76936965 0,1.61749027 C0,9.80255253 0.688246809,21.3661323 6.62363404,27.2754786 C9.41033191,29.7451206 13.0529617,31.0392568 16.7813872,30.8843463 C20.6257021,31.0350817 24.3872596,29.7475681 27.3250043,27.2754786 C31.7480426,22.8710389 32.5597021,11.8818949 27.3250043,6.67281323 Z" id="Path"></path>
                    <path d="M66.4281872,6.15682879 C58.2026468,6.15682879 46.5818809,6.84168872 40.6433106,12.7478677 C35.3961702,17.9691868 36.2202723,28.94307 40.6433106,33.3473658 C43.5819234,35.8198872 47.3446383,37.1074008 51.189966,36.9562335 C54.9182468,37.110856 58.5608766,35.8167198 61.3477191,33.3473658 C67.2861447,27.4381634 67.9713532,15.8745837 67.9713532,7.68937743 C67.9697617,6.84255253 67.2793447,6.15682879 66.4281872,6.15682879 Z" id="Path"></path>
                </g>
                <path d="M31.9940724,62 C31.1437943,62 30.45445,61.3141003 30.45445,60.4680712 C30.45445,27.9768767 18.4796893,19.8242064 13.9718158,16.7573329 C13.4281055,16.4119416 12.9132622,16.0236098 12.4321934,15.596215 C11.8414299,14.9877232 11.8584614,14.017899 12.4700092,13.4300875 C13.0666904,12.8566375 14.0125183,12.8566375 14.6091995,13.4300875 C14.9569028,13.7226289 15.3252459,13.9898943 15.7114866,14.2297294 C19.7143316,16.9533658 29.1427327,23.3720426 32.403551,44.4261184 C34.9234973,33.4188358 42.3934155,24.1772854 52.6582384,19.367658 C53.4442873,18.9997194 54.3824654,19.294415 54.8135943,20.0447973 C55.2030104,20.7276811 54.9625481,21.5952522 54.2762348,21.982866 C54.2505431,21.997371 54.2242741,22.0111579 54.1977165,22.0240832 L53.9483054,22.140554 C37.0684611,30.0358683 33.524313,47.3400431 33.524313,60.4682148 C33.5244573,61.31051 32.840742,61.9948299 31.9940724,62 Z" id="Path"></path>
            </g>
            <g id="plant-copy-11" transform="translate(370.000000, 90.000000)" fill="#DAD7AB">
                <g id="Group">
                    <path d="M27.3250043,6.67281323 C21.3865787,0.766634241 9.76581277,0.0817743191 1.54331064,0.0817743191 C0.690995745,0.0817743191 0,0.76936965 0,1.61749027 C0,9.80255253 0.688246809,21.3661323 6.62363404,27.2754786 C9.41033191,29.7451206 13.0529617,31.0392568 16.7813872,30.8843463 C20.6257021,31.0350817 24.3872596,29.7475681 27.3250043,27.2754786 C31.7480426,22.8710389 32.5597021,11.8818949 27.3250043,6.67281323 Z" id="Path"></path>
                    <path d="M66.4281872,6.15682879 C58.2026468,6.15682879 46.5818809,6.84168872 40.6433106,12.7478677 C35.3961702,17.9691868 36.2202723,28.94307 40.6433106,33.3473658 C43.5819234,35.8198872 47.3446383,37.1074008 51.189966,36.9562335 C54.9182468,37.110856 58.5608766,35.8167198 61.3477191,33.3473658 C67.2861447,27.4381634 67.9713532,15.8745837 67.9713532,7.68937743 C67.9697617,6.84255253 67.2793447,6.15682879 66.4281872,6.15682879 Z" id="Path"></path>
                </g>
                <path d="M31.9940724,62 C31.1437943,62 30.45445,61.3141003 30.45445,60.4680712 C30.45445,27.9768767 18.4796893,19.8242064 13.9718158,16.7573329 C13.4281055,16.4119416 12.9132622,16.0236098 12.4321934,15.596215 C11.8414299,14.9877232 11.8584614,14.017899 12.4700092,13.4300875 C13.0666904,12.8566375 14.0125183,12.8566375 14.6091995,13.4300875 C14.9569028,13.7226289 15.3252459,13.9898943 15.7114866,14.2297294 C19.7143316,16.9533658 29.1427327,23.3720426 32.403551,44.4261184 C34.9234973,33.4188358 42.3934155,24.1772854 52.6582384,19.367658 C53.4442873,18.9997194 54.3824654,19.294415 54.8135943,20.0447973 C55.2030104,20.7276811 54.9625481,21.5952522 54.2762348,21.982866 C54.2505431,21.997371 54.2242741,22.0111579 54.1977165,22.0240832 L53.9483054,22.140554 C37.0684611,30.0358683 33.524313,47.3400431 33.524313,60.4682148 C33.5244573,61.31051 32.840742,61.9948299 31.9940724,62 Z" id="Path"></path>
            </g>
            <g id="plant-copy-7" transform="translate(286.000000, 61.000000)" fill="#556A4F">
                <path d="M27.3250043,6.67281323 C21.3865787,0.766634241 9.76581277,0.0817743191 1.54331064,0.0817743191 C0.690995745,0.0817743191 0,0.76936965 0,1.61749027 C0,9.80255253 0.688246809,21.3661323 6.62363404,27.2754786 C9.41033191,29.7451206 13.0529617,31.0392568 16.7813872,30.8843463 C20.6257021,31.0350817 24.3872596,29.7475681 27.3250043,27.2754786 C31.7480426,22.8710389 32.5597021,11.8818949 27.3250043,6.67281323 Z" id="Path"></path>
                <path d="M66.4281872,6.15682879 C58.2026468,6.15682879 46.5818809,6.84168872 40.6433106,12.7478677 C35.3961702,17.9691868 36.2202723,28.94307 40.6433106,33.3473658 C43.5819234,35.8198872 47.3446383,37.1074008 51.189966,36.9562335 C54.9182468,37.110856 58.5608766,35.8167198 61.3477191,33.3473658 C67.2861447,27.4381634 67.9713532,15.8745837 67.9713532,7.68937743 C67.9697617,6.84255253 67.2793447,6.15682879 66.4281872,6.15682879 Z" id="Path"></path>
                <path d="M31.9940724,62 C31.1437943,62 30.45445,61.3141003 30.45445,60.4680712 C30.45445,27.9768767 18.4796893,19.8242064 13.9718158,16.7573329 C13.4281055,16.4119416 12.9132622,16.0236098 12.4321934,15.596215 C11.8414299,14.9877232 11.8584614,14.017899 12.4700092,13.4300875 C13.0666904,12.8566375 14.0125183,12.8566375 14.6091995,13.4300875 C14.9569028,13.7226289 15.3252459,13.9898943 15.7114866,14.2297294 C19.7143316,16.9533658 29.1427327,23.3720426 32.403551,44.4261184 C34.9234973,33.4188358 42.3934155,24.1772854 52.6582384,19.367658 C53.4442873,18.9997194 54.3824654,19.294415 54.8135943,20.0447973 C55.2030104,20.7276811 54.9625481,21.5952522 54.2762348,21.982866 C54.2505431,21.997371 54.2242741,22.0111579 54.1977165,22.0240832 L53.9483054,22.140554 C37.0684611,30.0358683 33.524313,47.3400431 33.524313,60.4682148 C33.5244573,61.31051 32.840742,61.9948299 31.9940724,62 Z" id="Path"></path>
            </g>
            <path d="M163.260864,29.2473809 C165.395179,33.486972 167.271223,39.0332567 168.403551,46.3443441 C169.555916,41.3107436 171.743422,36.6463944 174.759981,32.6062655 C172.11357,27.3986913 172.261382,19.0264582 176.643311,14.6660934 C182.581881,8.7599144 194.202647,8.07505447 202.428187,8.07505447 C203.279345,8.07505447 203.969762,8.76077821 203.971353,9.60760311 C203.971353,17.7928093 203.286145,29.3563891 197.347719,35.2655914 C194.560877,37.7349455 190.918247,39.0290817 187.189966,38.8744591 C183.354073,39.0252556 179.600388,37.744422 176.664955,35.2837691 C171.014586,43.6045332 169.524313,53.8734673 169.524313,62.3864405 C169.524457,63.2287356 168.840742,63.9130556 167.994072,63.9182257 C167.143794,63.9182257 166.45445,63.232326 166.45445,62.3862969 C166.45445,47.334916 163.884716,37.5064816 160.677951,30.9870716 C158.272898,32.2743701 155.548583,32.9110736 152.781387,32.802572 C149.052962,32.9574825 145.410332,31.6633463 142.623634,29.1937043 C136.688247,23.284358 136,11.7207782 136,3.53571595 C136,2.68759533 136.690996,2 137.543311,2 C145.765813,2 157.386579,2.68485992 163.325004,8.59103891 C168.559702,13.8001206 167.748043,24.7892646 163.325004,29.1937043 C163.303668,29.211659 163.282287,29.2295512 163.260864,29.2473809 Z" id="Combined-Shape-Copy" fill="#BBBAA9"></path>
            <path d="M244.260864,54.2473809 C246.395179,58.486972 248.271223,64.0332567 249.403551,71.3443441 C250.555916,66.3107436 252.743422,61.6463944 255.759981,57.6062655 C253.11357,52.3986913 253.261382,44.0264582 257.643311,39.6660934 C263.581881,33.7599144 275.202647,33.0750545 283.428187,33.0750545 C284.279345,33.0750545 284.969762,33.7607782 284.971353,34.6076031 C284.971353,42.7928093 284.286145,54.3563891 278.347719,60.2655914 C275.560877,62.7349455 271.918247,64.0290817 268.189966,63.8744591 C264.354073,64.0252556 260.600388,62.744422 257.664955,60.2837691 C252.014586,68.6045332 250.524313,78.8734673 250.524313,87.3864405 C250.524457,88.2287356 249.840742,88.9130556 248.994072,88.9182257 C248.143794,88.9182257 247.45445,88.232326 247.45445,87.3862969 C247.45445,72.334916 244.884716,62.5064816 241.677951,55.9870716 C239.272898,57.2743701 236.548583,57.9110736 233.781387,57.802572 C230.052962,57.9574825 226.410332,56.6633463 223.623634,54.1937043 C217.688247,48.284358 217,36.7207782 217,28.535716 C217,27.6875953 217.690996,27 218.543311,27 C226.765813,27 238.386579,27.6848599 244.325004,33.5910389 C249.559702,38.8001206 248.748043,49.7892646 244.325004,54.1937043 C244.303668,54.211659 244.282287,54.2295512 244.260864,54.2473809 Z" id="Combined-Shape-Copy-3" fill="#BBBAA9"></path>
        </g>
    </g>
</svg>